<svg width="80" height="80" viewBox="0 0 80 80" fill="none" xmlns="http://www.w3.org/2000/svg">
<g clip-path="url(#clip0_465_907)">
<path d="M78.3337 36.6667H74.8004L73.5504 26.6667C73.9924 26.6379 74.4049 26.4348 74.6971 26.1019C74.9894 25.769 75.1374 25.3337 75.1087 24.8917C75.08 24.4496 74.8768 24.0371 74.5439 23.7449C74.2111 23.4526 73.7757 23.3046 73.3337 23.3333H60.0004C59.5583 23.3046 59.123 23.4526 58.7901 23.7449C58.4572 24.0371 58.2541 24.4496 58.2254 24.8917C58.1966 25.3337 58.3447 25.769 58.6369 26.1019C58.9291 26.4348 59.3417 26.6379 59.7837 26.6667L58.5337 36.6667H51.467L50.217 26.6667C50.659 26.6379 51.0716 26.4348 51.3638 26.1019C51.656 25.769 51.8041 25.3337 51.7754 24.8917C51.7466 24.4496 51.5435 24.0371 51.2106 23.7449C50.8777 23.4526 50.4424 23.3046 50.0004 23.3333H36.667C36.225 23.3046 35.7897 23.4526 35.4568 23.7449C35.1239 24.0371 34.9208 24.4496 34.892 24.8917C34.8633 25.3337 35.0113 25.769 35.3036 26.1019C35.5958 26.4348 36.0083 26.6379 36.4504 26.6667L35.2004 36.6667H28.5337L26.867 21.6667C27.309 21.6401 27.7224 21.4391 28.0162 21.1078C28.3101 20.7765 28.4602 20.342 28.4337 19.9C28.4072 19.458 28.2061 19.0446 27.8748 18.7508C27.5435 18.457 27.109 18.3068 26.667 18.3333H6.66702C6.22499 18.3068 5.79053 18.457 5.45922 18.7508C5.1279 19.0446 4.92687 19.458 4.90035 19.9C4.87383 20.342 5.02399 20.7765 5.3178 21.1078C5.6116 21.4391 6.02499 21.6401 6.46702 21.6667L0.000351951 78.15C-0.0255236 78.3838 -0.00163032 78.6203 0.0704612 78.8442C0.142553 79.0681 0.26121 79.2742 0.418633 79.4489C0.576055 79.6237 0.768679 79.7631 0.98384 79.8581C1.199 79.9531 1.43183 80.0014 1.66702 80H76.667C77.109 80 77.533 79.8244 77.8455 79.5118C78.1581 79.1993 78.3337 78.7754 78.3337 78.3333V46.6667C78.7757 46.6667 79.1996 46.4911 79.5122 46.1785C79.8248 45.8659 80.0004 45.442 80.0004 45V38.3333C80.0004 37.8913 79.8248 37.4674 79.5122 37.1548C79.1996 36.8422 78.7757 36.6667 78.3337 36.6667ZM76.667 43.3333H20.0004V40H76.667V43.3333ZM63.1337 26.6667H70.2003L71.4503 36.6667H61.8837L63.1337 26.6667ZM39.8004 26.6667H46.867L48.117 36.6667H38.5504L39.8004 26.6667ZM9.80035 21.6667H23.5004L25.167 36.6667H18.3337C17.8917 36.6667 17.4677 36.8422 17.1552 37.1548C16.8426 37.4674 16.667 37.8913 16.667 38.3333V45C16.667 45.442 16.8426 45.8659 17.1552 46.1785C17.4677 46.4911 17.8917 46.6667 18.3337 46.6667V76.6667H3.53369L9.80035 21.6667ZM36.667 76.6667V63.3333H60.0004V76.6667H36.667ZM75.0004 76.6667H63.3337V61.6667C63.3337 61.2246 63.1581 60.8007 62.8455 60.4881C62.533 60.1756 62.109 60 61.667 60H35.0004C34.5583 60 34.1344 60.1756 33.8218 60.4881C33.5093 60.8007 33.3337 61.2246 33.3337 61.6667V76.6667H21.667V46.6667H75.0004V76.6667Z" fill="#77ABD2"/>
<path d="M29.9997 55.0001H43.333C43.775 55.0001 44.199 54.8245 44.5115 54.5119C44.8241 54.1994 44.9997 53.7754 44.9997 53.3334C44.9997 52.8914 44.8241 52.4675 44.5115 52.1549C44.199 51.8423 43.775 51.6667 43.333 51.6667H29.9997C29.5576 51.6667 29.1337 51.8423 28.8212 52.1549C28.5086 52.4675 28.333 52.8914 28.333 53.3334C28.333 53.7754 28.5086 54.1994 28.8212 54.5119C29.1337 54.8245 29.5576 55.0001 29.9997 55.0001ZM56.6663 55.0001H69.9997C70.4417 55.0001 70.8656 54.8245 71.1782 54.5119C71.4907 54.1994 71.6663 53.7754 71.6663 53.3334C71.6663 52.8914 71.4907 52.4675 71.1782 52.1549C70.8656 51.8423 70.4417 51.6667 69.9997 51.6667H56.6663C56.2243 51.6667 55.8004 51.8423 55.4878 52.1549C55.1753 52.4675 54.9997 52.8914 54.9997 53.3334C54.9997 53.7754 55.1753 54.1994 55.4878 54.5119C55.8004 54.8245 56.2243 55.0001 56.6663 55.0001ZM78.333 6.66675H53.333C50.2388 6.66675 47.2714 7.89591 45.0834 10.0838C42.8955 12.2718 41.6663 15.2392 41.6663 18.3334C41.6663 18.7754 41.8419 19.1994 42.1545 19.5119C42.4671 19.8245 42.891 20.0001 43.333 20.0001C43.775 20.0001 44.199 19.8245 44.5115 19.5119C44.8241 19.1994 44.9997 18.7754 44.9997 18.3334C44.9997 16.1233 45.8776 14.0037 47.4405 12.4409C49.0033 10.8781 51.1229 10.0001 53.333 10.0001H78.333C78.775 10.0001 79.199 9.82449 79.5115 9.51193C79.8241 9.19936 79.9997 8.77544 79.9997 8.33341C79.9997 7.89139 79.8241 7.46746 79.5115 7.1549C79.199 6.84234 78.775 6.66675 78.333 6.66675Z" fill="#77ABD2"/>
<path d="M15.0003 13.3333C15.4424 13.3333 15.8663 13.1577 16.1788 12.8452C16.4914 12.5326 16.667 12.1087 16.667 11.6667C16.667 9.45653 17.545 7.33691 19.1078 5.77411C20.6706 4.21131 22.7902 3.33333 25.0003 3.33333H78.3337C78.7757 3.33333 79.1996 3.15774 79.5122 2.84518C79.8247 2.53262 80.0003 2.10869 80.0003 1.66667C80.0003 1.22464 79.8247 0.800716 79.5122 0.488155C79.1996 0.175595 78.7757 0 78.3337 0L25.0003 0C14.3337 0 10.8003 13.3333 15.0003 13.3333ZM78.3337 13.3333H70.0003C68.6742 13.3333 67.4025 13.8601 66.4648 14.7978C65.5271 15.7355 65.0003 17.0072 65.0003 18.3333C65.0003 18.7754 65.1759 19.1993 65.4885 19.5118C65.801 19.8244 66.225 20 66.667 20C67.109 20 67.5329 19.8244 67.8455 19.5118C68.1581 19.1993 68.3337 18.7754 68.3337 18.3333C68.3337 17.8913 68.5093 17.4674 68.8218 17.1548C69.1344 16.8423 69.5583 16.6667 70.0003 16.6667H78.3337C78.7757 16.6667 79.1996 16.4911 79.5122 16.1785C79.8247 15.8659 80.0003 15.442 80.0003 15C80.0003 14.558 79.8247 14.134 79.5122 13.8215C79.1996 13.5089 78.7757 13.3333 78.3337 13.3333Z" fill="#77ABD2"/>
</g>
<defs>
<clipPath id="clip0_465_907">
<rect width="80" height="80" fill="white"/>
</clipPath>
</defs>
</svg>
