<svg width="90" height="90" viewBox="0 0 90 90" fill="none" xmlns="http://www.w3.org/2000/svg">
<g clip-path="url(#clip0_465_911)">
<path d="M39.9195 15.2509C39.6649 15.5867 39.4931 15.9777 39.4179 16.3923C39.3426 16.8069 39.3661 17.2334 39.4863 17.6373L39.5095 17.7174C33.3748 19.658 28.8354 24.755 28.2047 30.8806C27.744 31.373 27.4083 31.9689 27.2261 32.6182C27.0438 33.2674 27.0203 33.9509 27.1575 34.6111C27.2946 35.2714 27.5885 35.889 28.0142 36.4119C28.44 36.9348 28.9852 37.3477 29.6039 37.6159C30.2059 43.2576 33.0039 48.4359 37.3931 52.0313H30.6284C28.4635 52.0066 26.3316 52.5629 24.4547 53.6421C22.5778 54.7213 21.0247 56.284 19.957 58.1675L22.0594 60.2698C22.7986 58.6249 24.0051 57.2336 25.5287 56.2689C27.0524 55.3041 28.826 54.8086 30.6291 54.8438H32.3433V62.5782H30.2339C29.8609 62.5782 29.5033 62.7264 29.2395 62.9901C28.9758 63.2538 28.8277 63.6115 28.8277 63.9845V67.0381L31.6402 69.8506V65.3907H58.3589V69.8506L61.1714 67.0381V63.9845C61.1714 63.6115 61.0232 63.2538 60.7595 62.9901C60.4958 62.7264 60.1381 62.5782 59.7652 62.5782H57.6558V54.8438H59.3714C61.1742 54.8091 62.9474 55.3049 64.4707 56.2698C65.9939 57.2346 67.2 58.6258 67.939 60.2705L70.042 58.1675C68.9744 56.2841 67.4214 54.7215 65.5447 53.6423C63.6679 52.563 61.5362 52.0068 59.3714 52.0313H52.6066C56.9959 48.4359 59.7939 43.2576 60.3959 37.6159C61.0146 37.3477 61.5598 36.9348 61.9855 36.4119C62.4113 35.889 62.7051 35.2714 62.8423 34.6111C62.9795 33.9509 62.9559 33.2674 62.7737 32.6182C62.5914 31.9689 62.2558 31.373 61.7951 30.8806C61.1644 24.755 56.625 19.6573 50.4902 17.7174L50.5134 17.6373C50.6338 17.2333 50.6573 16.8067 50.5821 16.392C50.5068 15.9772 50.3349 15.5861 50.0803 15.2502C49.7954 14.8779 49.4279 14.5769 49.0068 14.3708C48.5858 14.1647 48.1226 14.0592 47.6538 14.0626H42.3452C41.8765 14.0594 41.4135 14.1651 40.9925 14.3713C40.5716 14.5775 40.2043 14.8786 39.9195 15.2509ZM54.8433 54.8438V62.5782H35.1558V54.8438H54.8433ZM44.9995 52.0313C38.6405 52.0313 33.3811 44.4123 32.4839 37.9688H57.5152C56.618 44.4123 51.3593 52.0313 44.9995 52.0313ZM60.1167 33.7501C60.1163 34.1229 59.9681 34.4804 59.7044 34.744C59.4408 35.0077 59.0833 35.156 58.7105 35.1563H31.2886C30.9156 35.1563 30.5579 35.0082 30.2942 34.7444C30.0305 34.4807 29.8823 34.123 29.8823 33.7501C29.8823 33.3771 30.0305 33.0194 30.2942 32.7557C30.5579 32.492 30.9156 32.3438 31.2886 32.3438H58.7105C59.0833 32.3442 59.4408 32.4925 59.7044 32.7561C59.9681 33.0198 60.1163 33.3772 60.1167 33.7501ZM47.7959 16.9088L46.256 22.1007C46.2036 22.2778 46.1865 22.4635 46.2058 22.6472C46.2252 22.8309 46.2805 23.009 46.3686 23.1713C46.4568 23.3336 46.576 23.477 46.7195 23.5932C46.8631 23.7094 47.0281 23.7962 47.2052 23.8487C47.3823 23.9011 47.568 23.9182 47.7517 23.8988C47.9354 23.8795 48.1135 23.8242 48.2758 23.7361C48.4381 23.6479 48.5815 23.5287 48.6977 23.3851C48.8139 23.2416 48.9008 23.0766 48.9532 22.8995L49.6845 20.4329C54.1767 21.8673 57.6206 25.2915 58.6964 29.5313H31.3027C32.3784 25.2922 35.8223 21.8673 40.3146 20.4329L41.0459 22.8995C41.0966 23.0785 41.1823 23.2457 41.2981 23.3913C41.4139 23.537 41.5575 23.6582 41.7205 23.748C41.8835 23.8377 42.0627 23.8943 42.2477 23.9143C42.4327 23.9343 42.6199 23.9174 42.7983 23.8645C42.9767 23.8117 43.1428 23.7239 43.2871 23.6064C43.4314 23.4888 43.5509 23.3438 43.6387 23.1798C43.7265 23.0157 43.7809 22.8359 43.7987 22.6506C43.8165 22.4654 43.7973 22.2785 43.7423 22.1007L42.2032 16.9088C42.2464 16.8851 42.2952 16.8735 42.3445 16.8751H47.6545C47.7036 16.8736 47.7521 16.8853 47.7952 16.9088H47.7959Z" fill="#77ABD2"/>
<path d="M46.9888 0.82395C46.4614 0.296688 45.7461 0.000488281 45.0004 0.000488281C44.2546 0.000488281 43.5394 0.296688 43.0119 0.82395L0.824438 43.0114C0.297176 43.5389 0.000976563 44.2541 0.000976562 44.9999C0.000976562 45.7457 0.297176 46.4609 0.824438 46.9883L43.0119 89.1758C43.5394 89.7031 44.2546 89.9993 45.0004 89.9993C45.7461 89.9993 46.4614 89.7031 46.9888 89.1758L89.1763 46.9883C89.7036 46.4609 89.9998 45.7457 89.9998 44.9999C89.9998 44.2541 89.7036 43.5389 89.1763 43.0114L46.9888 0.82395ZM45.0004 87.1874L2.81288 44.9999L45.0004 2.81239L87.1879 44.9999L45.0004 87.1874Z" fill="#77ABD2"/>
</g>
<defs>
<clipPath id="clip0_465_911">
<rect width="90" height="90" fill="white"/>
</clipPath>
</defs>
</svg>
