<svg width="80" height="80" viewBox="0 0 80 80" fill="none" xmlns="http://www.w3.org/2000/svg">
<path d="M77.5756 51.1516H72.4846L70.1816 26.0607C70.1816 25.4546 69.5756 24.9698 68.9695 24.9698H59.1513C58.5452 24.9698 58.0604 25.4546 57.9392 26.0607L55.6362 51.1516H49.5756C43.7574 42.3031 41.4543 24.8486 40.7271 14.3031H41.818C42.5452 14.3031 43.0301 13.8183 43.0301 13.091C43.0301 12.3637 42.5452 11.8789 41.818 11.8789H17.6968C16.9695 11.8789 16.4846 12.3637 16.4846 13.091C16.4846 13.8183 16.9695 14.3031 17.6968 14.3031H18.7877C18.424 19.6364 16.7271 40.8486 9.93919 51.1516H2.42404C1.69676 51.1516 1.21191 51.6364 1.21191 52.3637V77.5758C1.21191 78.3031 1.69676 78.788 2.42404 78.788H77.5756C78.3028 78.788 78.7877 78.3031 78.7877 77.5758V52.3637C78.7877 51.6364 78.3028 51.1516 77.5756 51.1516ZM67.8786 27.2728L68.121 29.9395H59.9998L60.2422 27.2728H67.8786ZM59.8786 32.3637H68.3634L70.0604 51.0304H58.0604L59.8786 32.3637ZM38.3028 14.3031C38.424 15.5152 38.5452 17.4546 38.7877 19.8789H20.9695C21.2119 17.4546 21.3331 15.5152 21.4543 14.3031H38.3028ZM15.3937 46.0607H18.3028C19.0301 46.0607 19.5149 45.5758 19.5149 44.8486C19.5149 44.1213 19.0301 43.6364 18.3028 43.6364H16.2422C18.6665 36.6061 19.9998 28.3637 20.6059 22.3031H39.0301C39.7574 28.3637 41.0907 36.6061 43.3937 43.6364H41.3331C40.6059 43.6364 40.121 44.1213 40.121 44.8486C40.121 45.5758 40.6059 46.0607 41.3331 46.0607H44.2422C44.9695 47.8789 45.6968 49.5758 46.5452 51.0304H12.9695C13.9392 49.5758 14.6665 47.8789 15.3937 46.0607ZM76.3634 76.3637H3.63616V53.5758H76.3634V76.3637ZM30.1816 7.87887C30.9089 8.00008 31.5149 7.51523 31.5149 6.90917C31.6362 6.06068 32.8483 5.33341 33.818 5.33341C36.6059 5.2122 39.3937 8.12129 43.1513 7.51523C46.1816 6.90917 48.3634 3.87887 50.6665 3.75765C51.7574 3.75765 52.3634 4.00008 60.7271 7.15159C61.3331 7.39402 62.0604 7.03038 62.3028 6.42432C62.5452 5.81826 62.1816 5.09099 61.5756 4.84856C52.9695 1.69705 52.2422 1.2122 50.5452 1.33341C47.1513 1.45462 45.2119 4.72735 42.7877 5.09099C40.4846 5.45462 36.8483 2.78796 33.818 2.90917C31.7574 2.90917 29.4543 4.2425 29.0907 6.54553C29.0907 7.15159 29.5756 7.75765 30.1816 7.87887Z" fill="#77ABD2"/>
<path d="M61.576 11.2727L54.1821 8.48486C51.1518 7.39395 49.4548 7.27274 46.4245 9.45456C45.9397 9.81819 45.6972 10.5455 46.1821 11.1515C46.5457 11.7576 47.273 11.8788 47.8791 11.394C50.1821 9.81819 50.9094 9.93941 53.3336 10.7879L60.7275 13.5758C60.8487 13.5758 60.97 13.697 61.0912 13.697C61.576 13.697 62.0609 13.3333 62.1821 12.8485C62.5457 12.2424 62.1821 11.5152 61.576 11.2727ZM65.4548 20.9697C67.5154 19.3939 68.2427 19.394 70.3033 20.2424L77.0912 23.0303C77.6972 23.2727 78.4245 23.0303 78.6669 22.303C78.9094 21.697 78.6669 20.9697 77.9397 20.7273L71.1518 17.9394C68.2427 16.7273 66.6669 16.7273 63.8791 18.9091C63.3942 19.2727 63.273 20.1212 63.6366 20.6061C64.1215 21.2121 64.97 21.3333 65.4548 20.9697ZM34.1821 35.5152H27.7578L32.2427 29.3333C32.6063 28.8485 32.4851 28 32.0003 27.6364C31.5154 27.2727 30.6669 27.3939 30.3033 27.8788L24.3639 36C24.1215 36.3636 24.0003 36.8485 24.2427 37.2121C24.4851 37.5758 24.8488 37.8182 25.3336 37.8182H31.7578L27.273 44.1212C26.9094 44.6061 27.0306 45.4546 27.5154 45.8182C27.7578 45.9394 28.0003 46.0606 28.2427 46.0606C28.6063 46.0606 28.97 45.9394 29.2124 45.5758L35.1518 37.3333C35.3942 36.9697 35.5154 36.4849 35.273 36.1212C35.1518 35.7576 34.6669 35.5152 34.1821 35.5152ZM13.9397 57.697C13.2124 57.697 12.7275 58.1818 12.7275 58.9091V61.3333C12.7275 62.0606 13.2124 62.5455 13.9397 62.5455C14.6669 62.5455 15.1518 62.0606 15.1518 61.3333V58.9091C15.1518 58.1818 14.6669 57.697 13.9397 57.697ZM31.273 57.697C30.5457 57.697 30.0609 58.1818 30.0609 58.9091V61.3333C30.0609 62.0606 30.5457 62.5455 31.273 62.5455C32.0003 62.5455 32.4851 62.0606 32.4851 61.3333V58.9091C32.4851 58.1818 32.0003 57.697 31.273 57.697ZM48.7275 57.697C48.0003 57.697 47.5154 58.1818 47.5154 58.9091V61.3333C47.5154 62.0606 48.0003 62.5455 48.7275 62.5455C49.4548 62.5455 49.9397 62.0606 49.9397 61.3333V58.9091C49.9397 58.1818 49.3336 57.697 48.7275 57.697ZM66.0609 57.697C65.3336 57.697 64.8487 58.1818 64.8487 58.9091V61.3333C64.8487 62.0606 65.3336 62.5455 66.0609 62.5455C66.7881 62.5455 67.273 62.0606 67.273 61.3333V58.9091C67.273 58.1818 66.6669 57.697 66.0609 57.697ZM13.9397 67.3939C13.2124 67.3939 12.7275 67.8788 12.7275 68.6061V71.0303C12.7275 71.7576 13.2124 72.2424 13.9397 72.2424C14.6669 72.2424 15.1518 71.7576 15.1518 71.0303V68.6061C15.1518 67.8788 14.6669 67.3939 13.9397 67.3939ZM31.273 67.3939C30.5457 67.3939 30.0609 67.8788 30.0609 68.6061V71.0303C30.0609 71.7576 30.5457 72.2424 31.273 72.2424C32.0003 72.2424 32.4851 71.7576 32.4851 71.0303V68.6061C32.4851 67.8788 32.0003 67.3939 31.273 67.3939ZM48.7275 67.3939C48.0003 67.3939 47.5154 67.8788 47.5154 68.6061V71.0303C47.5154 71.7576 48.0003 72.2424 48.7275 72.2424C49.4548 72.2424 49.9397 71.7576 49.9397 71.0303V68.6061C49.9397 67.8788 49.3336 67.3939 48.7275 67.3939ZM66.0609 67.3939C65.3336 67.3939 64.8487 67.8788 64.8487 68.6061V71.0303C64.8487 71.7576 65.3336 72.2424 66.0609 72.2424C66.7881 72.2424 67.273 71.7576 67.273 71.0303V68.6061C67.273 67.8788 66.6669 67.3939 66.0609 67.3939Z" fill="#77ABD2"/>
</svg>
