<svg width="80" height="80" viewBox="0 0 80 80" fill="none" xmlns="http://www.w3.org/2000/svg">
<path d="M78.2357 60.1177L69.5298 43.2942C69.1768 42.706 68.5886 42.4707 68.0004 42.8236L64.2357 44.706L61.6474 39.7648C71.4121 34.1177 74.7062 22.1177 69.6474 12.4707C64.3533 2.23538 51.7651 -1.76463 41.5298 3.41185C31.2945 8.58832 27.1768 21.0589 32.471 31.2942C37.6474 41.2942 49.6474 45.1766 59.6474 40.8236L62.2357 45.7648L58.5886 47.6471C58.3533 47.7648 58.118 48.0001 58.0004 48.353C57.8827 48.706 57.8827 48.9413 58.118 49.2942L66.8239 66.1177C68.118 68.706 71.2945 69.6471 73.7651 68.353L76.118 67.1766C78.5886 65.7648 79.5298 62.706 78.2357 60.1177ZM34.5886 30.2354C30.0004 21.2942 33.4121 10.2354 42.5886 5.52949C51.6474 0.941257 62.9415 4.47067 67.6474 13.5295C72.3533 22.5883 68.8239 33.6471 59.6474 38.2354C50.471 42.8236 39.2945 39.4118 34.5886 30.2354ZM74.9415 64.9413L72.5886 66.1177C71.1768 66.8236 69.5298 66.2354 68.8239 64.9413L60.5886 49.1766L67.8827 45.4118L76.118 61.1766C76.8239 62.5883 76.3533 64.2354 74.9415 64.9413Z" fill="#77ABD2"/>
<path d="M64.0003 31.7648V27.6472C64.0003 23.0589 60.2356 19.4119 55.765 19.4119H55.1768C57.4121 18.1177 58.8238 15.7648 58.8238 12.9413C58.8238 8.82363 55.4121 5.41187 51.2944 5.41187C47.1768 5.41187 43.765 8.82363 43.765 12.9413C43.765 15.6472 45.2944 18.1177 47.4121 19.4119H46.5885C42.0003 19.4119 38.3532 23.1766 38.3532 27.6472V31.7648C38.3532 32.4707 38.8238 32.9413 39.5297 32.9413H62.9415C63.4121 32.9413 64.0003 32.4707 64.0003 31.7648ZM51.1768 7.88245C54.0003 7.88245 56.3532 10.2354 56.3532 13.0589C56.3532 15.8825 54.0003 18.2354 51.1768 18.2354C48.3532 18.2354 46.0003 15.8825 46.0003 13.0589C46.0003 10.2354 48.3532 7.88245 51.1768 7.88245ZM61.6474 30.5883H40.5885V27.6472C40.5885 24.353 43.2944 21.7648 46.4709 21.7648H55.6473C58.9415 21.7648 61.5297 24.4707 61.5297 27.6472V30.5883H61.6474ZM48.1179 64.9413H47.6473C50.0003 63.6472 51.5297 61.1766 51.5297 58.2354C51.5297 54.0001 48.0003 50.4707 43.765 50.4707C39.5297 50.4707 36.0003 53.8825 36.0003 58.2354C36.0003 61.0589 37.5297 63.5295 39.8826 64.9413H39.1768C34.3532 64.9413 30.3532 68.9413 30.3532 73.7648V77.6472C30.3532 78.3531 30.8238 78.8236 31.5297 78.8236H55.765C56.4709 78.8236 56.9415 78.3531 56.9415 77.6472V73.7648C57.0591 68.9413 53.0591 64.9413 48.1179 64.9413ZM43.8826 52.9413C46.8238 52.9413 49.2944 55.2942 49.2944 58.353C49.2944 61.2942 46.8238 63.7648 43.8826 63.7648C40.9415 63.7648 38.4709 61.4119 38.4709 58.353C38.4709 55.2942 40.8238 52.9413 43.8826 52.9413ZM54.7062 76.4707H32.8238V73.7648C32.8238 70.2354 35.765 67.2942 39.2944 67.2942H48.1179C51.6474 67.2942 54.5885 70.2354 54.5885 73.7648V76.4707H54.7062ZM19.1768 64.9413H18.7062C21.0591 63.6472 22.5885 61.1766 22.5885 58.2354C22.5885 54.0001 19.0591 50.4707 14.8238 50.4707C10.5885 50.5883 7.05911 54.0001 7.05911 58.2354C7.05911 61.0589 8.58852 63.5295 10.9415 64.9413H10.3532C5.5297 64.9413 1.5297 68.9413 1.5297 73.7648V77.6472C1.5297 78.3531 2.00029 78.8236 2.70617 78.8236H26.9415C27.6473 78.8236 28.1179 78.3531 28.1179 77.6472V73.7648C28.0003 68.9413 24.0003 64.9413 19.1768 64.9413ZM14.8238 52.9413C17.765 52.9413 20.2356 55.2942 20.2356 58.353C20.2356 61.2942 17.765 63.7648 14.8238 63.7648C11.8826 63.7648 9.41205 61.1766 9.41205 58.2354C9.41205 55.2942 11.8826 52.9413 14.8238 52.9413ZM25.6473 76.4707H3.88264V73.7648C3.88264 70.2354 6.82382 67.2942 10.3532 67.2942H19.1768C22.7062 67.2942 25.6473 70.2354 25.6473 73.7648V76.4707ZM19.2944 30.5883H18.7062C21.1768 29.2942 22.8238 26.706 22.8238 23.7648C22.8238 21.6743 21.9934 19.6694 20.5151 18.1911C19.0369 16.7129 17.032 15.8825 14.9415 15.8825C12.8509 15.8825 10.846 16.7129 9.3678 18.1911C7.88957 19.6694 7.05911 21.6743 7.05911 23.7648C7.05911 26.706 8.70617 29.2942 11.1768 30.5883H10.2356C5.17676 30.5883 1.17676 34.706 1.17676 39.6472V43.6472C1.17676 44.353 1.64735 44.8236 2.35323 44.8236H27.1768C27.8826 44.8236 28.3532 44.353 28.3532 43.6472V39.6472C28.3532 34.706 24.2356 30.5883 19.2944 30.5883ZM9.2944 23.7648C9.2944 20.706 11.765 18.2354 14.8238 18.2354C17.8826 18.2354 20.3532 20.706 20.3532 23.7648C20.3532 26.8236 17.8826 29.2942 14.8238 29.2942C11.765 29.2942 9.2944 26.8236 9.2944 23.7648ZM26.0003 42.4707H3.5297V39.6472C3.5297 36.0001 6.58852 32.9413 10.2356 32.9413H19.2944C22.9415 32.9413 26.0003 36.0001 26.0003 39.6472V42.4707Z" fill="#77ABD2"/>
</svg>
