<svg width="80" height="80" viewBox="0 0 80 80" fill="none" xmlns="http://www.w3.org/2000/svg">
<g clip-path="url(#clip0_465_920)">
<path d="M39.9371 41.8438C39.6246 41.5156 39.0933 41.5 38.7652 41.8125C36.4371 44.0313 32.7808 44.0313 30.4527 41.8125C30.1246 41.5 29.5933 41.5 29.2808 41.8438C28.9683 42.1719 28.9683 42.7031 29.3121 43.0156C32.2808 45.8438 36.9371 45.8438 39.9215 43.0156C40.234 42.7031 40.2496 42.1719 39.9371 41.8438ZM39.4215 32.6094C39.8433 32.7813 40.3277 32.5781 40.5152 32.1563C40.7652 31.5469 41.6402 31.5313 41.8902 32.1563C42.0621 32.5781 42.5621 32.7813 42.984 32.6094C43.4058 32.4375 43.609 31.9375 43.4371 31.5156C42.609 29.5313 39.7965 29.5469 38.984 31.5156C38.7965 31.9375 38.9996 32.4219 39.4215 32.6094ZM29.8277 32.6094C30.2496 32.4375 30.4527 31.9375 30.2808 31.5156C29.4683 29.5469 26.6402 29.5313 25.8277 31.5156C25.6558 31.9375 25.859 32.4219 26.2808 32.6094C26.7027 32.7813 27.1871 32.5781 27.3746 32.1563C27.6246 31.5469 28.4996 31.5469 28.7496 32.1563C28.9215 32.5781 29.4058 32.7813 29.8277 32.6094Z" fill="#77ABD2"/>
<path d="M76.9531 52.125H76.7656V45.5C76.7656 45.0469 76.3906 44.6719 75.9375 44.6719C75.4844 44.6719 75.1094 45.0469 75.1094 45.5V52.125H66.6875V45.5C66.6875 45.0469 66.3125 44.6719 65.8594 44.6719C65.4062 44.6719 65.0312 45.0469 65.0312 45.5V52.125H64.8438C63.1875 52.125 61.8281 53.4844 61.8281 55.1406V56.4688C57.875 52.9062 52.6719 50.7188 46.9375 50.7188H45.9062L43.9531 48.7188C47.9219 45.9687 50.3125 41.7969 50.8906 37.3438L51.0938 35.7969C52.9219 35.4531 54.3281 33.8281 54.3281 31.8906C54.3281 30.4375 53.5312 29.1719 52.3594 28.4844C52.6094 28.1094 52.75 27.6562 52.75 27.1719V25.125H52.8438C54.4375 25.125 55.7344 23.8281 55.7344 22.2344C55.7344 20.8125 54.7031 19.6406 53.3438 19.3906C53 11.9219 47.8594 5.71875 40.9219 3.75L41.1094 2.6875C41.3438 1.3125 40.25 0 38.7969 0H30.4531C29 0 27.8906 1.3125 28.1406 2.75L28.3281 3.79688C21.3906 5.75 16.25 11.9688 15.9063 19.4375C14.5469 19.6719 13.5156 20.8594 13.5156 22.2812C13.5156 23.875 14.8125 25.1719 16.4062 25.1719H16.5V27.2188C16.5 27.7031 16.6406 28.1562 16.8906 28.5312C15.7188 29.2188 14.9219 30.4844 14.9219 31.9375C14.9219 33.875 16.3125 35.4844 18.1562 35.8438L18.3594 37.3906C18.9688 42.125 21.5938 46.1719 25.2812 48.75L23.3125 50.7656H22.2812C10 50.7656 0.015625 60.75 0.015625 73.0312V79.125C0.015625 79.5781 0.390625 79.9531 0.84375 79.9531C72.8125 79.9531 69.1719 80.3906 69.1719 79.125V76.6406C70.7344 74.8906 71.7031 72.5938 71.7031 70.0625V66.9219H72.5625C73.8906 66.9219 75.0625 66.0781 75.4219 64.8594C75.8281 63.5156 76.8125 62.3906 78 61.9531C79.1562 61.5156 79.9375 60.3438 79.9375 59.0469V55.1719C79.9688 53.4844 78.6094 52.125 76.9531 52.125ZM47.2969 54.5312L49.9687 62.0938L46.0469 59.9062C45.7812 59.7656 45.4687 59.7656 45.2031 59.9219L37.4688 64.5781C39.8906 60.6406 43.5312 57.4844 43.6719 50.8594L47.2969 54.5312ZM51.6875 19.3906H38.1875L40.625 5.45312C46.7656 7.25 51.3281 12.7656 51.6875 19.3906ZM30.4531 1.67188H38.7969C39.2188 1.67188 39.5312 2.04688 39.4688 2.46875L36.5 19.4062H32.75L29.7812 2.46875C29.7188 2.04688 30.0312 1.67188 30.4531 1.67188ZM28.6094 5.45312L31.0469 19.3906H17.5469C17.9062 12.7656 22.4844 7.25 28.6094 5.45312ZM16.4062 23.5C15.7344 23.5 15.1875 22.9531 15.1875 22.2812C15.1875 21.6094 15.7344 21.0625 16.4062 21.0625C27.8281 21.0625 39.6875 21.0625 52.8281 21.0625C53.5 21.0625 54.0469 21.6094 54.0469 22.2812C54.0469 22.9531 53.5 23.5 52.8281 23.5H16.4062ZM49.5469 25.1719H51.0625V27.2188C51.0625 27.625 50.7344 27.9531 50.3281 27.9531C49.9219 27.9531 49.5938 27.625 49.5938 27.2188C49.5781 26.2812 49.625 25.9844 49.5469 25.1719ZM19.6562 27.2031C19.6562 27.6094 19.3281 27.9375 18.9219 27.9375C18.5156 27.9375 18.1875 27.6094 18.1875 27.2031V25.1562H19.7031C19.625 25.8281 19.6719 25.6875 19.6562 27.2031ZM20.0312 37.1562L19.75 34.9531C19.7031 34.5312 19.3438 34.2344 18.9219 34.2344C17.6406 34.2344 16.6094 33.2031 16.6094 31.9375C16.6094 30.6406 17.625 29.625 18.9219 29.625C20.25 29.625 21.3125 28.5469 21.3125 27.2188C21.3281 25.7812 21.2656 25.8281 21.3594 25.1719H47.8906C47.9531 25.7344 47.9219 25.8281 47.9219 27.2188C47.9219 28.5312 48.9844 29.6094 50.2969 29.625C51.7344 29.6719 52.625 30.7656 52.625 31.9375C52.625 33.2031 51.5938 34.2344 50.3281 34.2344C49.9062 34.2344 49.5625 34.5469 49.5 34.9531L49.2188 37.1562C48.2812 44.4531 42.0781 50 34.625 50C27.2344 50 20.9687 44.4688 20.0312 37.1562ZM25.5469 50.8594C25.6875 57.4531 29.2969 60.5938 31.75 64.5781L24.0156 59.9219C23.7656 59.7656 23.4375 59.7656 23.1719 59.9062L19.2656 62.0938L21.9375 54.5312L25.5469 50.8594ZM23.625 78.2656H11.8594V74.875L17.4688 76.7969C17.6406 76.8594 17.8281 76.8594 18 76.7969L23.6094 74.875V78.2656H23.625ZM23.625 73.125L17.75 75.1406L11.8594 73.125V71.875C11.8594 71.4375 12.2188 71.0938 12.6406 71.0938H22.8437C23.2812 71.0938 23.625 71.4531 23.625 71.875V73.125ZM33.7812 78.2656H25.2812C25.2812 78.0312 25.2812 71.5 25.2812 71.875C25.2812 70.5312 24.1875 69.4219 22.8281 69.4219H12.6406C11.2969 69.4219 10.1875 70.5156 10.1875 71.875C10.1875 73.9062 10.1875 78.3906 10.1875 78.2656H1.70312V73C1.70312 61.8438 10.6094 52.75 21.6719 52.4219L20.6094 53.5C20.5312 53.5938 20.4531 53.6875 20.4219 53.8125L16.9531 63.625C16.7031 64.3438 17.4844 65 18.1406 64.625L23.5625 61.6094L33.7812 67.7656V78.2656ZM27.2187 49.875C29.4531 51.0156 31.9688 51.6562 34.6094 51.6562C37.2031 51.6562 39.7344 51.0312 42 49.8906C42.3125 56.5781 38.5156 59.6719 34.6094 65.8125C30.7344 59.7031 26.9062 56.5625 27.2187 49.875ZM57.375 78.2656H45.6094V74.875L51.2187 76.7969C51.3906 76.8594 51.5781 76.8594 51.75 76.7969L57.3594 74.875V78.2656H57.375ZM57.375 73.125L51.5 75.1406L45.6094 73.125V71.875C45.6094 71.4375 45.9687 71.0938 46.3906 71.0938H56.5938C57.0312 71.0938 57.375 71.4531 57.375 71.875V73.125ZM67.5312 75.9531C66.0469 77.375 64.0469 78.2656 61.8281 78.2656H59.0312C59.0312 78.0312 59.0312 71.5 59.0312 71.875C59.0312 70.5312 57.9375 69.4219 56.5781 69.4219H46.375C45.0312 69.4219 43.9219 70.5156 43.9219 71.875C43.9219 73.9062 43.9219 78.3906 43.9219 78.2656H35.4219V67.75L45.6406 61.5938L51.0625 64.6094C51.7344 64.9844 52.5 64.3281 52.25 63.6094L48.7969 53.7969C48.75 53.6875 48.6875 53.5781 48.6094 53.4844L47.5469 52.4062C53.1406 52.5781 58.1875 54.9844 61.8125 58.7812V59C61.8125 60.3125 62.5938 61.4844 63.75 61.9062C64.0156 62 64.2656 62.1406 64.5156 62.2969C66.4062 65.4062 67.5156 69.0625 67.5156 72.9688L67.5312 75.9531ZM70.0625 70.0312C70.0625 71.3438 69.75 72.5781 69.2031 73.6719C69.1719 73.2812 69.375 70.4375 68.2969 66.75C68.5938 66.8438 68.8906 66.8906 69.2031 66.8906H70.0625V70.0312ZM78.2969 59.0156C78.2969 59.6406 77.9531 60.1719 77.4375 60.375C75.7656 61 74.3906 62.5156 73.8438 64.3594C73.6875 64.875 73.1719 65.2344 72.5781 65.2344H69.2031C68.6094 65.2344 68.0938 64.875 67.9375 64.3438C67.3906 62.5 66.0156 60.9688 64.3438 60.3594C63.8281 60.1719 63.4844 59.625 63.4844 59V55.125C63.4844 54.375 64.0938 53.7812 64.8281 53.7812H76.9375C77.6875 53.7812 78.2812 54.3906 78.2812 55.125L78.2969 59.0156Z" fill="#77ABD2"/>
<path d="M67.375 57.0937L74.4063 57.0625C74.8594 57.0625 75.2344 56.6875 75.2344 56.2344C75.2344 55.7812 74.8594 55.4062 74.4063 55.4062L67.375 55.4375C66.9219 55.4375 66.5469 55.8125 66.5469 56.2656C66.5469 56.7188 66.9219 57.0937 67.375 57.0937ZM74.4063 58.25L67.375 58.2812C66.9219 58.2812 66.5469 58.6562 66.5469 59.1094C66.5469 59.5625 66.9219 59.9375 67.375 59.9375L74.4063 59.9062C74.8594 59.9062 75.2344 59.5312 75.2344 59.0781C75.2344 58.6094 74.8594 58.25 74.4063 58.25Z" fill="#77ABD2"/>
</g>
<defs>
<clipPath id="clip0_465_920">
<rect width="80" height="80" fill="white"/>
</clipPath>
</defs>
</svg>
