<svg width="80" height="80" viewBox="0 0 80 80" fill="none" xmlns="http://www.w3.org/2000/svg">
<g clip-path="url(#clip0_465_924)">
<path d="M1.25 29.375C1.58152 29.375 1.89945 29.2433 2.13387 29.0089C2.36828 28.7745 2.49998 28.4565 2.5 28.125L2.49938 20.2612C2.48813 19.4831 2.43563 18.0768 3.30813 17.6639L8.50524 15.2051C7.71295 14.7356 7.00642 14.1345 6.41599 13.4277C6.41599 13.4277 2.10693 15.4678 2.07518 15.4861C0.346994 16.4813 0 18.4543 0 20.2814V28.125C1.32599e-05 28.4565 0.131714 28.7745 0.366131 29.0089C0.600549 29.2433 0.918483 29.375 1.25 29.375ZM23.3346 15.7782C23.2057 15.6699 23.0682 15.5723 22.9236 15.4861C22.8937 15.4688 18.5827 13.4277 18.5827 13.4277C17.9923 14.1346 17.2858 14.7356 16.4935 15.2051C16.4935 15.2051 21.6836 17.6602 21.6919 17.6642C22.5546 18.0725 22.4988 19.4971 22.4988 20.2814V28.125C22.4988 28.4565 22.6304 28.7745 22.8649 29.0089C23.0993 29.2433 23.4172 29.375 23.7488 29.375C24.0803 29.375 24.3982 29.2433 24.6326 29.0089C24.8671 28.7745 24.9988 28.4565 24.9988 28.125V20.3015C25.0226 18.5831 24.7247 16.9196 23.3346 15.7782ZM12.3242 13.75H12.6746C15.6793 13.75 18.1244 11.0721 18.1244 7.78075V5.97044C18.1244 2.67825 15.6793 0 12.6746 0H12.3242C9.31887 0 6.87437 2.67825 6.87437 5.97044V7.78075C6.87437 11.0721 9.31887 13.75 12.3242 13.75ZM9.37437 5.97044C9.37437 4.05669 10.6976 2.5 12.3242 2.5H12.6746C14.3011 2.5 15.6244 4.05669 15.6244 5.97044V7.78075C15.6244 9.69362 14.3011 11.25 12.6746 11.25H12.3242C10.6976 11.25 9.37437 9.69362 9.37437 7.78075V5.97044ZM28.75 29.375C29.0815 29.375 29.3995 29.2433 29.6339 29.0089C29.8683 28.7745 30 28.4565 30 28.125L29.9994 20.2612C29.9881 19.4831 29.9356 18.0768 30.8081 17.6639L36.0052 15.2051C35.2129 14.7356 34.5064 14.1345 33.916 13.4277C33.916 13.4277 29.6069 15.4678 29.5752 15.4861C27.847 16.4813 27.5 18.4543 27.5 20.2814V28.125C27.5 28.4565 27.6317 28.7745 27.8661 29.0089C28.1005 29.2433 28.4185 29.375 28.75 29.375ZM50.8344 15.7782C50.7055 15.67 50.5681 15.5723 50.4236 15.4861C50.3937 15.4688 46.0827 13.4277 46.0827 13.4277C45.4923 14.1346 44.7858 14.7356 43.9935 15.2051C43.9935 15.2051 49.1834 17.6602 49.1919 17.6642C50.0543 18.0725 49.9987 19.4971 49.9987 20.2814V28.125C49.9987 28.4565 50.1304 28.7745 50.3649 29.0089C50.5993 29.2433 50.9172 29.375 51.2487 29.375C51.5803 29.375 51.8982 29.2433 52.1326 29.0089C52.3671 28.7745 52.4987 28.4565 52.4987 28.125V20.3015C52.5226 18.5831 52.2247 16.9196 50.8344 15.7782ZM39.8242 13.75H40.1746C43.1793 13.75 45.6244 11.0721 45.6244 7.78075V5.97044C45.6244 2.67825 43.1793 0 40.1746 0H39.8242C36.8189 0 34.3744 2.67825 34.3744 5.97044V7.78075C34.3744 11.0721 36.8189 13.75 39.8242 13.75ZM36.8744 5.97044C36.8744 4.05669 38.1976 2.5 39.8242 2.5H40.1746C41.8011 2.5 43.1244 4.05669 43.1244 5.97044V7.78075C43.1244 9.69362 41.8011 11.25 40.1746 11.25H39.8242C38.1976 11.25 36.8744 9.69362 36.8744 7.78075V5.97044ZM56.25 29.375C56.5815 29.375 56.8994 29.2433 57.1339 29.0089C57.3683 28.7744 57.5 28.4565 57.5 28.125L57.4994 20.2612C57.4878 19.4831 57.4353 18.0768 58.3081 17.6639L63.5052 15.2051C62.7129 14.7356 62.0064 14.1345 61.416 13.4277C61.416 13.4277 57.1069 15.4678 57.0752 15.4861C55.3467 16.4813 55 18.4543 55 20.2814V28.125C55 28.4565 55.1317 28.7745 55.3661 29.0089C55.6005 29.2433 55.9185 29.375 56.25 29.375ZM78.3344 15.7782C78.2055 15.67 78.0681 15.5723 77.9236 15.4861C77.8937 15.4688 73.5827 13.4277 73.5827 13.4277C72.9923 14.1346 72.2858 14.7356 71.4935 15.2051C71.4935 15.2051 76.6834 17.6602 76.6919 17.6642C77.5543 18.0725 77.4987 19.4971 77.4987 20.2814V28.125C77.4987 28.4565 77.6304 28.7745 77.8649 29.0089C78.0993 29.2433 78.4172 29.375 78.7487 29.375C79.0803 29.375 79.3982 29.2433 79.6326 29.0089C79.8671 28.7745 79.9987 28.4565 79.9987 28.125V20.3015C80.0226 18.5831 79.7247 16.9196 78.3344 15.7782ZM67.3242 13.75H67.6746C70.6793 13.75 73.1244 11.0721 73.1244 7.78075V5.97044C73.1244 2.67825 70.6793 0 67.6746 0H67.3242C64.3189 0 61.8744 2.67825 61.8744 5.97044V7.78075C61.8744 11.0721 64.3189 13.75 67.3242 13.75ZM64.3744 5.97044C64.3744 4.05669 65.6976 2.5 67.3242 2.5H67.6746C69.3011 2.5 70.6244 4.05669 70.6244 5.97044V7.78075C70.6244 9.69362 69.3011 11.25 67.6746 11.25H67.3242C65.6976 11.25 64.3744 9.69362 64.3744 7.78075V5.97044ZM6.41599 64.0527C6.41599 64.0527 2.10693 66.0928 2.07518 66.1111C0.346994 67.1063 0 69.0793 0 70.9064V78.75C0 79.0815 0.131696 79.3995 0.366117 79.6339C0.600537 79.8683 0.918479 80 1.25 80C1.58152 80 1.89946 79.8683 2.13388 79.6339C2.3683 79.3995 2.5 79.0815 2.5 78.75L2.49938 70.8862C2.48813 70.1081 2.43563 68.7018 3.30813 68.2889L8.50524 65.8301C7.71295 65.3606 7.00642 64.7595 6.41599 64.0527ZM23.3346 66.4032C23.2057 66.2949 23.0682 66.1973 22.9236 66.1111C22.8937 66.0938 18.5827 64.0527 18.5827 64.0527C17.9923 64.7596 17.2858 65.3606 16.4935 65.8301C16.4935 65.8301 21.6836 68.2852 21.6919 68.2892C22.5546 68.6975 22.4988 70.1221 22.4988 70.9064V78.75C22.4988 79.0815 22.6304 79.3995 22.8649 79.6339C23.0993 79.8683 23.4172 80 23.7488 80C24.0803 80 24.3982 79.8683 24.6326 79.6339C24.8671 79.3995 24.9988 79.0815 24.9988 78.75V70.9265C25.0226 69.2081 24.7247 67.5446 23.3346 66.4032ZM18.1244 58.4058V56.5954C18.1244 53.3032 15.6793 50.625 12.6746 50.625H12.3242C9.31887 50.625 6.87437 53.3032 6.87437 56.5954V58.4058C6.87437 61.6971 9.31887 64.375 12.3242 64.375H12.6746C15.6793 64.375 18.1244 61.6971 18.1244 58.4058ZM15.6244 58.4058C15.6244 60.3186 14.3011 61.875 12.6746 61.875H12.3242C10.6976 61.875 9.37437 60.3186 9.37437 58.4058V56.5954C9.37437 54.6817 10.6976 53.125 12.3242 53.125H12.6746C14.3011 53.125 15.6244 54.6817 15.6244 56.5954V58.4058ZM33.916 64.0527C33.916 64.0527 29.6069 66.0928 29.5752 66.1111C27.847 67.1063 27.5 69.0793 27.5 70.9064V78.75C27.5 79.0815 27.6317 79.3995 27.8661 79.6339C28.1005 79.8683 28.4185 80 28.75 80C29.0815 80 29.3995 79.8683 29.6339 79.6339C29.8683 79.3995 30 79.0815 30 78.75L29.9994 70.8862C29.9881 70.1081 29.9356 68.7018 30.8081 68.2889L36.0052 65.8301C35.2129 65.3606 34.5064 64.7595 33.916 64.0527ZM50.8344 66.4032C50.7055 66.295 50.5681 66.1973 50.4236 66.1111C50.3937 66.0938 46.0827 64.0527 46.0827 64.0527C45.4923 64.7596 44.7858 65.3606 43.9935 65.8301C43.9935 65.8301 49.1834 68.2852 49.1919 68.2892C50.0543 68.6975 49.9987 70.1221 49.9987 70.9064V78.75C49.9987 79.0815 50.1304 79.3995 50.3649 79.6339C50.5993 79.8683 50.9172 80 51.2487 80C51.5803 80 51.8982 79.8683 52.1326 79.6339C52.3671 79.3995 52.4987 79.0815 52.4987 78.75V70.9265C52.5226 69.2081 52.2247 67.5446 50.8344 66.4032ZM45.6244 58.4058V56.5954C45.6244 53.3032 43.1793 50.625 40.1746 50.625H39.8242C36.8189 50.625 34.3744 53.3032 34.3744 56.5954V58.4058C34.3744 61.6971 36.8189 64.375 39.8242 64.375H40.1746C43.1793 64.375 45.6244 61.6971 45.6244 58.4058ZM43.1244 58.4058C43.1244 60.3186 41.8011 61.875 40.1746 61.875H39.8242C38.1976 61.875 36.8744 60.3186 36.8744 58.4058V56.5954C36.8744 54.6817 38.1976 53.125 39.8242 53.125H40.1746C41.8011 53.125 43.1244 54.6817 43.1244 56.5954V58.4058ZM61.416 64.0527C61.416 64.0527 57.1069 66.0928 57.0752 66.1111C55.3467 67.1063 55 69.0793 55 70.9064V78.75C55 79.0815 55.1317 79.3995 55.3661 79.6339C55.6005 79.8683 55.9185 80 56.25 80C56.5815 80 56.8995 79.8683 57.1339 79.6339C57.3683 79.3995 57.5 79.0815 57.5 78.75L57.4994 70.8862C57.4878 70.1081 57.4353 68.7018 58.3081 68.2889L63.5052 65.8301C62.7129 65.3606 62.0064 64.7595 61.416 64.0527ZM78.3344 66.4032C78.2055 66.295 78.0681 66.1973 77.9236 66.1111C77.8937 66.0938 73.5827 64.0527 73.5827 64.0527C72.9923 64.7596 72.2858 65.3606 71.4935 65.8301C71.4935 65.8301 76.6834 68.2852 76.6919 68.2892C77.5543 68.6975 77.4987 70.1221 77.4987 70.9064V78.75C77.4987 79.0815 77.6304 79.3995 77.8649 79.6339C78.0993 79.8683 78.4172 80 78.7487 80C79.0803 80 79.3982 79.8683 79.6326 79.6339C79.8671 79.3995 79.9987 79.0815 79.9987 78.75V70.9265C80.0226 69.2081 79.7247 67.5446 78.3344 66.4032ZM73.1244 58.4058V56.5954C73.1244 53.3032 70.6793 50.625 67.6746 50.625H67.3242C64.3189 50.625 61.8744 53.3032 61.8744 56.5954V58.4058C61.8744 61.6971 64.3189 64.375 67.3242 64.375H67.6746C70.6793 64.375 73.1244 61.6971 73.1244 58.4058ZM70.6244 58.4058C70.6244 60.3186 69.3011 61.875 67.6746 61.875H67.3242C65.6976 61.875 64.3744 60.3186 64.3744 58.4058V56.5954C64.3744 54.6817 65.6976 53.125 67.3242 53.125H67.6746C69.3011 53.125 70.6244 54.6817 70.6244 56.5954V58.4058ZM1.25 54.6875C1.58152 54.6875 1.89945 54.5558 2.13387 54.3214C2.36828 54.0869 2.49998 53.769 2.5 53.4375L2.49938 45.5737C2.48813 44.7956 2.43563 43.3893 3.30813 42.9764L8.50524 40.5176C7.71295 40.0481 7.00642 39.447 6.41599 38.7402C6.41599 38.7402 2.10693 40.7803 2.07518 40.7986C0.346994 41.7938 0 43.7668 0 45.5939V53.4375C1.32599e-05 53.769 0.131714 54.087 0.366131 54.3214C0.600549 54.5558 0.918483 54.6875 1.25 54.6875ZM23.3346 41.0907C23.2057 40.9824 23.0682 40.8848 22.9236 40.7986C22.8937 40.7812 18.5827 38.7402 18.5827 38.7402C17.9923 39.4471 17.2858 40.0481 16.4935 40.5176C16.4935 40.5176 21.6836 42.9727 21.6919 42.9767C22.5546 43.385 22.4988 44.8096 22.4988 45.5939V53.4375C22.4988 53.769 22.6304 54.087 22.8649 54.3214C23.0993 54.5558 23.4172 54.6875 23.7488 54.6875C24.0803 54.6875 24.3982 54.5558 24.6326 54.3214C24.8671 54.087 24.9988 53.769 24.9988 53.4375V45.614C25.0226 43.8956 24.7247 42.2321 23.3346 41.0907ZM6.87437 31.2829V33.0933C6.87437 36.3846 9.31887 39.0625 12.3242 39.0625H12.6746C15.6793 39.0625 18.1244 36.3846 18.1244 33.0933V31.2829C18.1244 27.9907 15.6793 25.3125 12.6746 25.3125H12.3242C9.31887 25.3125 6.87437 27.9907 6.87437 31.2829ZM15.6244 31.2829V33.0933C15.6244 35.0061 14.3011 36.5625 12.6746 36.5625H12.3242C10.6976 36.5625 9.37437 35.0061 9.37437 33.0933V31.2829C9.37437 29.3692 10.6976 27.8125 12.3242 27.8125H12.6746C14.3011 27.8125 15.6244 29.3692 15.6244 31.2829ZM28.75 54.6875C29.0815 54.6875 29.3995 54.5558 29.6339 54.3214C29.8683 54.0869 30 53.769 30 53.4375L29.9994 45.5737C29.9881 44.7956 29.9356 43.3893 30.8081 42.9764L36.0052 40.5176C35.2129 40.0481 34.5064 39.447 33.916 38.7402C33.916 38.7402 29.6069 40.7803 29.5752 40.7986C27.847 41.7938 27.5 43.7668 27.5 45.5939V53.4375C27.5 53.769 27.6317 54.087 27.8661 54.3214C28.1005 54.5558 28.4185 54.6875 28.75 54.6875ZM50.8344 41.0907C50.7055 40.9825 50.5681 40.8848 50.4236 40.7986C50.3937 40.7812 46.0827 38.7402 46.0827 38.7402C45.4923 39.4471 44.7858 40.0481 43.9935 40.5176C43.9935 40.5176 49.1834 42.9727 49.1919 42.9767C50.0543 43.385 49.9987 44.8096 49.9987 45.5939V53.4375C49.9987 53.769 50.1304 54.087 50.3649 54.3214C50.5993 54.5558 50.9172 54.6875 51.2487 54.6875C51.5803 54.6875 51.8982 54.5558 52.1326 54.3214C52.3671 54.087 52.4987 53.769 52.4987 53.4375V45.614C52.5226 43.8956 52.2247 42.2321 50.8344 41.0907ZM34.3744 31.2829V33.0933C34.3744 36.3846 36.8189 39.0625 39.8242 39.0625H40.1746C43.1793 39.0625 45.6244 36.3846 45.6244 33.0933V31.2829C45.6244 27.9907 43.1793 25.3125 40.1746 25.3125H39.8242C36.8189 25.3125 34.3744 27.9907 34.3744 31.2829ZM43.1244 31.2829V33.0933C43.1244 35.0061 41.8011 36.5625 40.1746 36.5625H39.8242C38.1976 36.5625 36.8744 35.0061 36.8744 33.0933V31.2829C36.8744 29.3692 38.1976 27.8125 39.8242 27.8125H40.1746C41.8011 27.8125 43.1244 29.3692 43.1244 31.2829ZM56.25 54.6875C56.5815 54.6875 56.8994 54.5558 57.1339 54.3214C57.3683 54.0869 57.5 53.769 57.5 53.4375L57.4994 45.5737C57.4878 44.7956 57.4353 43.3893 58.3081 42.9764L63.5052 40.5176C62.7129 40.0481 62.0064 39.447 61.416 38.7402C61.416 38.7402 57.1069 40.7803 57.0752 40.7986C55.3467 41.7938 55 43.7668 55 45.5939V53.4375C55 53.769 55.1317 54.087 55.3661 54.3214C55.6005 54.5558 55.9185 54.6875 56.25 54.6875ZM78.3344 41.0907C78.2055 40.9825 78.0681 40.8848 77.9236 40.7986C77.8937 40.7812 73.5827 38.7402 73.5827 38.7402C72.9923 39.4471 72.2858 40.0481 71.4935 40.5176C71.4935 40.5176 76.6834 42.9727 76.6919 42.9767C77.5543 43.385 77.4987 44.8096 77.4987 45.5939V53.4375C77.4987 53.769 77.6304 54.087 77.8649 54.3214C78.0993 54.5558 78.4172 54.6875 78.7487 54.6875C79.0803 54.6875 79.3982 54.5558 79.6326 54.3214C79.8671 54.087 79.9987 53.769 79.9987 53.4375V45.614C80.0226 43.8956 79.7247 42.2321 78.3344 41.0907ZM61.8744 31.2829V33.0933C61.8744 36.3846 64.3189 39.0625 67.3242 39.0625H67.6746C70.6793 39.0625 73.1244 36.3846 73.1244 33.0933V31.2829C73.1244 27.9907 70.6793 25.3125 67.6746 25.3125H67.3242C64.3189 25.3125 61.8744 27.9907 61.8744 31.2829ZM70.6244 31.2829V33.0933C70.6244 35.0061 69.3011 36.5625 67.6746 36.5625H67.3242C65.6976 36.5625 64.3744 35.0061 64.3744 33.0933V31.2829C64.3744 29.3692 65.6976 27.8125 67.3242 27.8125H67.6746C69.3011 27.8125 70.6244 29.3692 70.6244 31.2829Z" fill="#77ABD2"/>
</g>
<defs>
<clipPath id="clip0_465_924">
<rect width="80" height="80" fill="white"/>
</clipPath>
</defs>
</svg>
