<svg width="88" height="80" viewBox="0 0 88 80" fill="none" xmlns="http://www.w3.org/2000/svg">
<path d="M82.0218 0C80.4772 0.00170438 78.9964 0.616024 77.9043 1.70818C76.8121 2.80033 76.1978 4.28111 76.1961 5.82565V7.62679H11.6513V5.82565C11.6513 4.28059 11.0375 2.79881 9.945 1.70629C8.85248 0.613772 7.3707 0 5.82565 0C4.28059 0 2.79881 0.613772 1.70629 1.70629C0.613772 2.79881 0 4.28059 0 5.82565V39.4015C0 40.9467 0.613821 42.4286 1.70643 43.5212C2.79903 44.6138 4.28093 45.2276 5.82611 45.2276C7.37129 45.2276 8.85318 44.6138 9.94579 43.5212C11.0384 42.4286 11.6522 40.9467 11.6522 39.4015V37.6004H76.197V39.4015C76.197 40.9467 76.8109 42.4286 77.9035 43.5212C78.9961 44.6138 80.478 45.2276 82.0231 45.2276C83.5683 45.2276 85.0502 44.6138 86.1428 43.5212C87.2354 42.4286 87.8492 40.9467 87.8492 39.4015V5.82565C87.8475 4.28079 87.233 2.79973 86.1404 1.70753C85.0479 0.615322 83.5666 0.0012174 82.0218 0ZM9.35066 39.4015C9.35066 40.3367 8.97918 41.2335 8.31793 41.8947C7.6567 42.556 6.75986 42.9275 5.82473 42.9275C4.88959 42.9275 3.99276 42.556 3.33152 41.8947C2.67028 41.2335 2.2988 40.3367 2.2988 39.4015V5.82565C2.2988 4.89051 2.67028 3.99368 3.33152 3.33244C3.99276 2.6712 4.88959 2.29972 5.82473 2.29972C6.75986 2.29972 7.6567 2.6712 8.31793 3.33244C8.97918 3.99368 9.35066 4.89051 9.35066 5.82565V39.4015ZM44.2595 35.3007L35.0459 29.4014L36.17 21.3929C36.203 21.1568 36.1619 20.9162 36.0523 20.7045C35.9427 20.4927 35.7701 20.3202 35.5582 20.2108L30.8061 17.7584C30.5351 17.6186 30.2196 17.5922 29.9291 17.685C29.6386 17.7779 29.3968 17.9823 29.257 18.2533C29.1172 18.5244 29.0908 18.8399 29.1836 19.1304C29.2765 19.4209 29.4809 19.6626 29.7519 19.8024L33.7801 21.8814L32.667 29.8126C32.6364 30.0307 32.6689 30.253 32.7609 30.4531C32.8529 30.6532 33.0004 30.8226 33.1859 30.9413L39.993 35.3007H11.6513V9.92651H76.197V35.3007H44.2595ZM85.5477 39.4015C85.5477 40.3368 85.1762 41.2337 84.5148 41.8951C83.8535 42.5564 82.9566 42.9279 82.0213 42.9279C81.086 42.9279 80.1891 42.5564 79.5278 41.8951C78.8664 41.2337 78.4949 40.3368 78.4949 39.4015V5.82565C78.4949 4.89039 78.8664 3.99344 79.5278 3.33211C80.1891 2.67079 81.086 2.29926 82.0213 2.29926C82.9566 2.29926 83.8535 2.67079 84.5148 3.33211C85.1762 3.99344 85.5477 4.89039 85.5477 5.82565V39.4015ZM43.0443 47.5527C42.5761 48.1046 31.5825 61.2387 31.5825 67.7644C31.6106 71.0192 32.9233 74.1311 35.2347 76.4227C37.5462 78.7143 40.6693 80 43.9242 80C47.179 80 50.3022 78.7143 52.6136 76.4227C54.9251 74.1311 56.2377 71.0192 56.2658 67.7644C56.2658 61.2387 45.2713 48.1083 44.804 47.5527C44.6927 47.4299 44.5569 47.3317 44.4054 47.2645C44.2538 47.1974 44.0899 47.1627 43.9242 47.1627C43.7584 47.1627 43.5945 47.1974 43.443 47.2645C43.2914 47.3317 43.1556 47.4299 43.0443 47.5527ZM43.9237 77.8068C41.2613 77.8037 38.709 76.7446 36.8265 74.8619C34.944 72.9793 33.8851 70.4268 33.8822 67.7644C33.8822 63.4465 40.4723 54.3828 43.9246 50.1026C47.376 54.381 53.967 63.441 53.967 67.7644C53.9641 70.4271 52.905 72.9799 51.0221 74.8626C49.1392 76.7453 46.5864 77.8042 43.9237 77.8068Z" fill="#77ABD2"/>
<path d="M41.8535 73.2085C41.8535 73.5134 41.9747 73.8059 42.1903 74.0215C42.4059 74.2372 42.6984 74.3583 43.0034 74.3583C44.985 74.3561 46.8847 73.568 48.2859 72.1668C49.6871 70.7656 50.4753 68.8658 50.4775 66.8842C50.4775 66.5793 50.3563 66.2868 50.1407 66.0712C49.925 65.8555 49.6326 65.7344 49.3276 65.7344C49.0226 65.7344 48.7302 65.8555 48.5145 66.0712C48.2989 66.2868 48.1777 66.5793 48.1777 66.8842C48.1763 68.2561 47.6307 69.5714 46.6606 70.5415C45.6905 71.5115 44.3753 72.0571 43.0034 72.0586C42.6984 72.0586 42.4059 72.1797 42.1903 72.3954C41.9747 72.611 41.8535 72.9035 41.8535 73.2085Z" fill="#77ABD2"/>
</svg>
