<svg width="80" height="80" viewBox="0 0 80 80" fill="none" xmlns="http://www.w3.org/2000/svg">
<path d="M74.9997 33.3333C75.9197 33.3333 76.6663 32.5933 76.6663 31.67V25.0033C76.6663 24.7141 76.591 24.4298 76.4478 24.1785C76.3046 23.9272 76.0985 23.7175 75.8497 23.57L43.2463 4.20663L43.203 4.17997C41.1763 3.05663 38.893 3.0233 36.7463 4.2033L4.14634 23.57C3.89835 23.7189 3.69312 23.9295 3.5506 24.1813C3.40808 24.433 3.33312 24.7173 3.33301 25.0066V31.6733C3.33301 32.5933 4.07967 33.3333 4.99967 33.3333H9.99967V63.3333C6.32301 63.3333 3.33301 66.3233 3.33301 70V75C3.33301 75.442 3.5086 75.8659 3.82116 76.1785C4.13372 76.4911 4.55765 76.6666 4.99967 76.6666H74.9997C75.4417 76.6666 75.8656 76.4911 76.1782 76.1785C76.4908 75.8659 76.6663 75.442 76.6663 75V70C76.6663 66.3233 73.6763 63.3333 69.9997 63.3333V33.3333H74.9997ZM33.333 63.3333H23.333V33.3333H33.333V63.3333ZM56.6663 63.3333H46.6663V33.3333H56.6663V63.3333Z" fill="#77ABD2"/>
<path d="M6.66699 25.9501L38.4037 7.09672C38.8843 6.8176 39.4299 6.66974 39.9857 6.66798C40.5415 6.66623 41.0879 6.81064 41.5703 7.08672L73.3337 25.9501V30.0001H6.66699V25.9501Z" fill="#FAFAFA"/>
<path d="M41.6637 7.13659L41.5703 7.08326C41.0877 6.80782 40.5413 6.66379 39.9857 6.66554C39.43 6.6673 38.8845 6.81478 38.4037 7.09326L6.66699 25.9499V29.9999H10.0003V25.9499L41.6637 7.13659Z" fill="white"/>
<path d="M36.667 33.3333H43.3337V63.3333H36.667V33.3333ZM13.3337 33.3333H20.0003V63.3333H13.3337V33.3333ZM73.3337 69.9999V73.3333H6.66699V69.9999C6.66699 68.1632 8.16366 66.6666 10.0003 66.6666H70.0003C71.837 66.6666 73.3337 68.1632 73.3337 69.9999Z" fill="#FAFAFA"/>
<path d="M70.0003 66.6667H10.0003C8.16366 66.6667 6.66699 68.1634 6.66699 70.0001V71.6067C6.66699 69.7701 8.16366 68.2734 10.0003 68.2734H70.0003C71.837 68.2734 73.3337 69.7701 73.3337 71.6067V70.0001C73.3337 68.1634 71.837 66.6667 70.0003 66.6667Z" fill="white"/>
<path d="M60 33.3333H66.6667V63.3333H60V33.3333Z" fill="#FAFAFA"/>
<path d="M39.9971 26.6701C43.6809 26.6701 46.6671 23.6838 46.6671 20.0001C46.6671 16.3163 43.6809 13.3301 39.9971 13.3301C36.3134 13.3301 33.3271 16.3163 33.3271 20.0001C33.3271 23.6838 36.3134 26.6701 39.9971 26.6701Z" fill="#77ABD2"/>
<path d="M39.9968 23.3367C41.8396 23.3367 43.3335 21.8428 43.3335 20C43.3335 18.1572 41.8396 16.6633 39.9968 16.6633C38.154 16.6633 36.6602 18.1572 36.6602 20C36.6602 21.8428 38.154 23.3367 39.9968 23.3367Z" fill="#FAFAFA"/>
</svg>
