<svg width="80" height="80" viewBox="0 0 80 80" fill="none" xmlns="http://www.w3.org/2000/svg">
<path d="M39.9999 14.1175C38.7178 14.1175 37.4645 13.7374 36.3985 13.0251C35.3325 12.3128 34.5017 11.3004 34.011 10.1159C33.5204 8.93138 33.392 7.628 33.6421 6.37054C33.8923 5.11309 34.5096 3.95805 35.4162 3.05147C36.3228 2.1449 37.4778 1.52751 38.7353 1.27739C39.9927 1.02727 41.2961 1.15564 42.4806 1.64627C43.6651 2.13691 44.6775 2.96777 45.3898 4.03379C46.1021 5.0998 46.4823 6.3531 46.4823 7.63519C46.4823 9.35441 45.7993 11.0032 44.5837 12.2189C43.368 13.4346 41.7192 14.1175 39.9999 14.1175V14.1175ZM39.9999 3.52931C39.1832 3.52931 38.3848 3.77149 37.7058 4.22524C37.0267 4.67898 36.4974 5.32391 36.1849 6.07846C35.8723 6.83301 35.7905 7.6633 35.9499 8.46433C36.1092 9.26535 36.5025 10.0011 37.08 10.5787C37.6575 11.1562 38.3933 11.5494 39.1943 11.7088C39.9954 11.8681 40.8256 11.7863 41.5802 11.4738C42.3347 11.1613 42.9797 10.632 43.4334 9.9529C43.8872 9.27382 44.1293 8.47544 44.1293 7.65872C44.1293 6.56353 43.6943 5.5132 42.9199 4.73878C42.1455 3.96437 41.0951 3.52931 39.9999 3.52931ZM39.9999 78.8234C38.7178 78.8234 37.4645 78.4432 36.3985 77.731C35.3325 77.0187 34.5017 76.0063 34.011 74.8218C33.5204 73.6373 33.392 72.3339 33.6421 71.0764C33.8923 69.819 34.5096 68.6639 35.4162 67.7574C36.3228 66.8508 37.4778 66.2334 38.7353 65.9833C39.9927 65.7332 41.2961 65.8615 42.4806 66.3522C43.6651 66.8428 44.6775 67.6737 45.3898 68.7397C46.1021 69.8057 46.4823 71.059 46.4823 72.3411C46.4823 74.0603 45.7993 75.7091 44.5837 76.9248C43.368 78.1405 41.7192 78.8234 39.9999 78.8234ZM39.9999 68.2352C39.1832 68.2352 38.3848 68.4774 37.7058 68.9311C37.0267 69.3849 36.4974 70.0298 36.1849 70.7843C35.8723 71.5389 35.7905 72.3692 35.9499 73.1702C36.1092 73.9712 36.5025 74.707 37.08 75.2845C37.6575 75.862 38.3933 76.2553 39.1943 76.4147C39.9954 76.574 40.8256 76.4922 41.5802 76.1797C42.3347 75.8671 42.9797 75.3379 43.4334 74.6588C43.8872 73.9797 44.1293 73.1813 44.1293 72.3646C44.1293 71.2694 43.6943 70.2191 42.9199 69.4447C42.1455 68.6703 41.0951 68.2352 39.9999 68.2352V68.2352Z" fill="#77ABD2"/>
<path d="M40.0001 68.2352C39.6881 68.2352 39.3889 68.1112 39.1683 67.8906C38.9476 67.67 38.8237 67.3707 38.8237 67.0587V59.1175C38.8237 58.8055 38.9476 58.5063 39.1683 58.2857C39.3889 58.065 39.6881 57.9411 40.0001 57.9411C40.3122 57.9411 40.6114 58.065 40.832 58.2857C41.0527 58.5063 41.1766 58.8055 41.1766 59.1175V67.0587C41.1766 67.3707 41.0527 67.67 40.832 67.8906C40.6114 68.1112 40.3122 68.2352 40.0001 68.2352ZM40.0001 21.0587C39.6881 21.0587 39.3889 20.9348 39.1683 20.7141C38.9476 20.4935 38.8237 20.1943 38.8237 19.8823V12.9411C38.8237 12.6291 38.9476 12.3298 39.1683 12.1092C39.3889 11.8886 39.6881 11.7646 40.0001 11.7646C40.3122 11.7646 40.6114 11.8886 40.832 12.1092C41.0527 12.3298 41.1766 12.6291 41.1766 12.9411V19.8823C41.1766 20.1943 41.0527 20.4935 40.832 20.7141C40.6114 20.9348 40.3122 21.0587 40.0001 21.0587ZM62.8707 23.6117C61.8037 23.614 60.7525 23.353 59.8106 22.8516C58.8686 22.3502 58.065 21.6241 57.471 20.7376C56.877 19.8511 56.5111 18.8317 56.4056 17.7699C56.3002 16.708 56.4585 15.6366 56.8665 14.6506C57.2746 13.6646 57.9197 12.7946 58.7447 12.1178C59.5696 11.441 60.5489 10.9783 61.5956 10.7707C62.6423 10.5632 63.724 10.6173 64.7448 10.9282C65.7656 11.2391 66.6939 11.7971 67.4472 12.5528V12.5528C68.3509 13.4594 68.9659 14.6131 69.2149 15.8687C69.4638 17.1242 69.3354 18.4253 68.846 19.6081C68.3566 20.7908 67.5279 21.8021 66.4646 22.5146C65.4012 23.2271 64.1507 23.6088 62.8707 23.6117V23.6117ZM62.8707 13.0234C61.9116 13.0295 60.9843 13.3683 60.2472 13.9821C59.51 14.5958 59.0088 15.4464 58.8291 16.3886C58.6494 17.3308 58.8023 18.3062 59.2618 19.1482C59.7212 19.9901 60.4587 20.6465 61.3483 21.0052C62.2379 21.3639 63.2244 21.4027 64.1394 21.1149C65.0544 20.8272 65.8411 20.2307 66.3652 19.4274C66.8893 18.6241 67.1183 17.6637 67.0131 16.7103C66.9079 15.7569 66.475 14.8696 65.7884 14.1999V14.1999C65.406 13.8163 64.9511 13.5127 64.4502 13.3067C63.9493 13.1007 63.4123 12.9964 62.8707 12.9999V13.0234ZM17.1296 69.4117C16.0642 69.4102 15.0156 69.1461 14.0766 68.6429C13.1375 68.1396 12.337 67.4127 11.7458 66.5264C11.1547 65.6401 10.791 64.6218 10.6871 63.5615C10.5833 62.5012 10.7423 61.4316 11.1502 60.4474C11.5581 59.4632 12.2023 58.5947 13.0258 57.9188C13.8493 57.2428 14.8266 56.7803 15.8715 56.572C16.9163 56.3638 17.9963 56.4162 19.0161 56.7248C20.0358 57.0334 20.9637 57.5885 21.7178 58.3411V58.3411C22.6205 59.2499 23.2342 60.4053 23.4819 61.662C23.7295 62.9188 23.6 64.2207 23.1095 65.404C22.6191 66.5873 21.7897 67.5991 20.7257 68.3122C19.6616 69.0253 18.4105 69.4079 17.1296 69.4117V69.4117ZM17.1296 58.8234C16.3111 58.822 15.5106 59.0638 14.8299 59.5182C14.1491 59.9726 13.6187 60.619 13.3061 61.3754C12.9934 62.1319 12.9126 62.9641 13.0739 63.7665C13.2352 64.569 13.6313 65.3054 14.2119 65.8823C14.5961 66.2721 15.054 66.5817 15.5589 66.793C16.0638 67.0043 16.6057 67.1131 17.1531 67.1131C17.7004 67.1131 18.2423 67.0043 18.7473 66.793C19.2522 66.5817 19.7101 66.2721 20.0943 65.8823C20.6749 65.3054 21.071 64.569 21.2323 63.7665C21.3936 62.9641 21.3128 62.1319 21.0001 61.3754C20.6875 60.619 20.1571 59.9726 19.4763 59.5182C18.7955 59.0638 17.9951 58.822 17.1766 58.8234H17.1296Z" fill="#77ABD2"/>
<path d="M20.8827 60.2942C20.645 60.3054 20.4096 60.2442 20.2073 60.1188C20.0051 59.9933 19.8457 59.8095 19.7501 59.5916C19.6546 59.3737 19.6273 59.1319 19.672 58.8982C19.7167 58.6645 19.8312 58.4498 20.0004 58.2825L25.5063 52.7883C25.6156 52.6781 25.7458 52.5906 25.8891 52.5308C26.0325 52.4711 26.1863 52.4404 26.3416 52.4404C26.4969 52.4404 26.6506 52.4711 26.794 52.5308C26.9374 52.5906 27.0675 52.6781 27.1769 52.7883C27.396 53.0088 27.519 53.307 27.519 53.6178C27.519 53.9286 27.396 54.2267 27.1769 54.4472L21.718 60.0001C21.4885 60.2032 21.1888 60.3087 20.8827 60.2942ZM54.118 27.0589C53.9632 27.0598 53.8097 27.0302 53.6664 26.9716C53.523 26.9131 53.3927 26.8268 53.2827 26.7178C53.0636 26.4973 52.9406 26.1992 52.9406 25.8883C52.9406 25.5775 53.0636 25.2794 53.2827 25.0589L58.2827 20.0589C58.3921 19.9487 58.5222 19.8611 58.6656 19.8014C58.809 19.7417 58.9627 19.7109 59.118 19.7109C59.2733 19.7109 59.4271 19.7417 59.5705 19.8014C59.7138 19.8611 59.844 19.9487 59.9533 20.0589C60.1724 20.2794 60.2954 20.5775 60.2954 20.8883C60.2954 21.1992 60.1724 21.4973 59.9533 21.7178L54.9533 26.7178C54.8434 26.8268 54.713 26.9131 54.5697 26.9716C54.4264 27.0302 54.2729 27.0598 54.118 27.0589ZM72.3416 46.4825C71.0595 46.4825 69.8062 46.1023 68.7402 45.39C67.6741 44.6777 66.8433 43.6653 66.3527 42.4808C65.862 41.2963 65.7336 39.9929 65.9838 38.7355C66.2339 37.478 66.8513 36.323 67.7578 35.4164C68.6644 34.5098 69.8195 33.8924 71.0769 33.6423C72.3344 33.3922 73.6378 33.5206 74.8223 34.0112C76.0067 34.5018 77.0192 35.3327 77.7314 36.3987C78.4437 37.4647 78.8239 38.718 78.8239 40.0001C78.8239 41.7193 78.141 43.3682 76.9253 44.5838C75.7096 45.7995 74.0608 46.4825 72.3416 46.4825V46.4825ZM72.3416 35.8942C71.5238 35.8942 70.7245 36.137 70.045 36.5918C69.3654 37.0466 68.8361 37.6929 68.5243 38.4489C68.2124 39.2048 68.1321 40.0363 68.2933 40.8379C68.4546 41.6396 68.8502 42.3753 69.43 42.9519C70.0099 43.5285 70.7479 43.9199 71.5505 44.0766C72.353 44.2332 73.1841 44.1481 73.9382 43.8319C74.6923 43.5158 75.3356 42.9828 75.7865 42.3007C76.2374 41.6185 76.4756 40.8178 76.471 40.0001C76.471 38.9049 76.0359 37.8546 75.2615 37.0802C74.4871 36.3058 73.4368 35.8707 72.3416 35.8707V35.8942ZM7.65921 46.4825C6.37613 46.4871 5.12052 46.1109 4.05142 45.4015C2.98231 44.692 2.14779 43.6812 1.65354 42.4972C1.1593 41.3131 1.02756 40.009 1.27502 38.75C1.52248 37.491 2.138 36.3337 3.04363 35.4248C3.94926 34.5159 5.10426 33.8961 6.36235 33.6441C7.62044 33.3921 8.92503 33.519 10.1109 34.009C11.2968 34.4989 12.3106 35.3298 13.0239 36.3963C13.7372 37.4628 14.118 38.717 14.118 40.0001C14.118 41.7153 13.4383 43.3605 12.2277 44.5755C11.0171 45.7905 9.37435 46.4762 7.65921 46.4825V46.4825ZM7.65921 35.8942C6.8405 35.8896 6.03889 36.1284 5.35622 36.5803C4.67355 37.0323 4.14063 37.677 3.82517 38.4325C3.50971 39.188 3.42595 40.0202 3.58454 40.8234C3.74312 41.6266 4.13689 42.3646 4.71581 42.9435C5.29473 43.5224 6.03267 43.9162 6.83589 44.0748C7.6391 44.2334 8.47133 44.1496 9.22683 43.8341C9.98234 43.5187 10.627 42.9858 11.079 42.3031C11.5309 41.6204 11.7697 40.8188 11.7651 40.0001C11.7651 38.909 11.3333 37.8622 10.5639 37.0885C9.79461 36.3147 8.75031 35.8769 7.65921 35.8707V35.8942Z" fill="#77ABD2"/>
<path d="M20.4002 41.1764H12.9413C12.6293 41.1764 12.3301 41.0524 12.1095 40.8318C11.8888 40.6112 11.7649 40.3119 11.7649 39.9999C11.7649 39.6879 11.8888 39.3886 12.1095 39.168C12.3301 38.9474 12.6293 38.8234 12.9413 38.8234H20.3766C20.6887 38.8234 20.9879 38.9474 21.2085 39.168C21.4292 39.3886 21.5531 39.6879 21.5531 39.9999C21.5531 40.3119 21.4292 40.6112 21.2085 40.8318C20.9879 41.0524 20.6887 41.1764 20.3766 41.1764H20.4002ZM67.059 41.1764H59.6002C59.2881 41.1764 58.9889 41.0524 58.7683 40.8318C58.5476 40.6112 58.4237 40.3119 58.4237 39.9999C58.4237 39.6879 58.5476 39.3886 58.7683 39.168C58.9889 38.9474 59.2881 38.8234 59.6002 38.8234H67.059C67.371 38.8234 67.6702 38.9474 67.8909 39.168C68.1115 39.3886 68.2355 39.6879 68.2355 39.9999C68.2355 40.3119 68.1115 40.6112 67.8909 40.8318C67.6702 41.0524 67.371 41.1764 67.059 41.1764ZM62.8708 69.4117C61.3677 69.4162 59.9097 68.8991 58.7452 67.9488C57.5807 66.9984 56.782 65.6736 56.4851 64.2001C56.1883 62.7267 56.4118 61.1959 57.1174 59.8688C57.823 58.5417 58.9672 57.5004 60.3547 56.9226C61.7423 56.3447 63.2873 56.2661 64.7263 56.7C66.1654 57.134 67.4093 58.0537 68.2461 59.3022C69.0828 60.5508 69.4606 62.051 69.3149 63.547C69.1692 65.043 68.5092 66.4421 67.4472 67.5058V67.5058C66.8487 68.1108 66.1359 68.5908 65.3503 68.918C64.5646 69.2452 63.7218 69.413 62.8708 69.4117V69.4117ZM62.8708 58.8234C61.9147 58.8306 60.9908 59.1693 60.2567 59.7817C59.5225 60.394 59.0236 61.2422 58.845 62.1814C58.6664 63.1206 58.8193 64.0927 59.2775 64.9318C59.7356 65.7709 60.4708 66.425 61.3575 66.7825C62.2441 67.14 63.2274 67.1788 64.1395 66.8923C65.0516 66.6057 65.8359 66.0116 66.3588 65.2112C66.8817 64.4108 67.1106 63.4538 67.0066 62.5034C66.9026 61.5531 66.472 60.6682 65.7884 59.9999C65.4109 59.6057 64.9582 59.2912 64.4571 59.075C63.9559 58.8587 63.4165 58.7452 62.8708 58.7411V58.8234ZM17.1296 23.6117C15.63 23.6096 14.1775 23.0876 13.0195 22.1347C11.8616 21.1818 11.0698 19.8569 10.7792 18.3858C10.4885 16.9146 10.7169 15.3881 11.4255 14.0665C12.134 12.7448 13.2789 11.7097 14.6651 11.1375C16.0512 10.5652 17.5929 10.4913 19.0274 10.9282C20.4619 11.3652 21.7006 12.286 22.5324 13.5338C23.3642 14.7816 23.7376 16.2792 23.5891 17.7714C23.4406 19.2636 22.7792 20.6582 21.7178 21.7176V21.7176C20.4988 22.9305 18.8492 23.6115 17.1296 23.6117V23.6117ZM17.1296 13.0234C16.5896 13.0168 16.0537 13.1174 15.5529 13.3193C15.0521 13.5213 14.5963 13.8206 14.2119 14.1999C13.6405 14.7798 13.2531 15.5157 13.0987 16.315C12.9442 17.1144 13.0295 17.9416 13.3438 18.6926C13.6581 19.4437 14.1874 20.085 14.8652 20.5361C15.543 20.9872 16.339 21.2279 17.1531 21.2279C17.9673 21.2279 18.7632 20.9872 19.441 20.5361C20.1188 20.085 20.6481 19.4437 20.9624 18.6926C21.2767 17.9416 21.362 17.1144 21.2075 16.315C21.0531 15.5157 20.6658 14.7798 20.0943 14.1999C19.7063 13.8106 19.2438 13.5037 18.7343 13.2975C18.2249 13.0913 17.6791 12.9901 17.1296 12.9999V13.0234Z" fill="#77ABD2"/>
<path d="M25.8827 27.0589C25.7278 27.0598 25.5743 27.0302 25.431 26.9716C25.2877 26.9131 25.1573 26.8268 25.0474 26.7178L20.0003 21.7178C19.7812 21.4973 19.6582 21.1992 19.6582 20.8883C19.6582 20.5775 19.7812 20.2794 20.0003 20.0589C20.1097 19.9487 20.2398 19.8611 20.3832 19.8014C20.5265 19.7417 20.6803 19.7109 20.8356 19.7109C20.9909 19.7109 21.1447 19.7417 21.288 19.8014C21.4314 19.8611 21.5615 19.9487 21.6709 20.0589L26.6709 25.0589C26.89 25.2794 27.013 25.5775 27.013 25.8883C27.013 26.1992 26.89 26.4973 26.6709 26.7178C26.4605 26.9268 26.179 27.0486 25.8827 27.0589ZM59.118 60.2942C58.9623 60.2936 58.8083 60.2621 58.6649 60.2015C58.5216 60.1409 58.3916 60.0525 58.2827 59.9413L52.7768 54.4472C52.584 54.2221 52.4833 53.9326 52.4948 53.6365C52.5062 53.3404 52.629 53.0596 52.8385 52.85C53.048 52.6405 53.3289 52.5178 53.625 52.5063C53.921 52.4949 54.2105 52.5956 54.4356 52.7883L60.0003 58.2825C60.1662 58.447 60.2794 58.6573 60.3253 58.8864C60.3713 59.1155 60.348 59.3531 60.2584 59.5689C60.1688 59.7847 60.0169 59.969 59.8222 60.0982C59.6275 60.2273 59.3987 60.2956 59.165 60.2942H59.118Z" fill="#77ABD2"/>
<path d="M40.0001 60.2942C34.5751 60.2867 29.3675 58.1611 25.4867 54.3704C21.6058 50.5797 19.3586 45.4234 19.2236 40.0001C19.2236 39.8707 19.2236 39.6589 19.2236 39.4589C19.2236 33.9455 21.4138 28.6579 25.3124 24.7594C29.2109 20.8608 34.4985 18.6707 40.0119 18.6707C45.5252 18.6707 50.8128 20.8608 54.7114 24.7594C58.6099 28.6579 60.8001 33.9455 60.8001 39.4589C60.8001 39.6589 60.8001 39.8707 60.8001 40.0589C60.65 45.476 58.3928 50.6208 54.5086 54.3997C50.6243 58.1785 45.4192 60.2932 40.0001 60.2942V60.2942ZM40.0001 21.0589C35.1117 21.062 30.4244 23.0053 26.9678 26.4619C23.5112 29.9185 21.5679 34.6058 21.5648 39.4942C21.5648 39.6354 21.5648 39.7765 21.5648 39.9059C21.5523 44.7937 23.482 49.4863 26.9294 52.9513C30.3767 56.4163 35.0594 58.3699 39.9472 58.3824C44.8349 58.3949 49.5275 56.4652 52.9925 53.0178C56.4575 49.5705 58.4111 44.8879 58.4236 40.0001C58.4236 39.8001 58.4236 39.6589 58.4236 39.5177C58.4268 34.6273 56.4878 29.9357 53.0331 26.4744C49.5783 23.013 44.8905 21.0651 40.0001 21.0589V21.0589Z" fill="#77ABD2"/>
<path d="M45.8826 37.8706H34.1179C33.8059 37.8706 33.5066 37.7467 33.286 37.526C33.0654 37.3054 32.9414 37.0062 32.9414 36.6941V30.5882C32.9414 29.6522 33.3133 28.7545 33.9751 28.0926C34.637 27.4307 35.5348 27.0588 36.4708 27.0588H43.5296C44.4657 27.0588 45.3634 27.4307 46.0253 28.0926C46.6872 28.7545 47.0591 29.6522 47.0591 30.5882V36.6706C47.0622 36.8271 47.0341 36.9826 46.9763 37.128C46.9186 37.2735 46.8325 37.406 46.7229 37.5177C46.6133 37.6295 46.4826 37.7183 46.3383 37.7789C46.194 37.8394 46.0391 37.8706 45.8826 37.8706ZM35.2943 35.5177H44.7061V30.5882C44.7061 30.2762 44.5822 29.977 44.3615 29.7564C44.1409 29.5357 43.8417 29.4118 43.5296 29.4118H36.4708C36.1588 29.4118 35.8596 29.5357 35.6389 29.7564C35.4183 29.977 35.2943 30.2762 35.2943 30.5882V35.5177Z" fill="#77ABD2"/>
<path d="M48.5883 51.9058H31.4001C31.0881 51.9058 30.7888 51.7819 30.5682 51.5612C30.3476 51.3406 30.2236 51.0414 30.2236 50.7293V36.694C30.2236 36.382 30.3476 36.0828 30.5682 35.8622C30.7888 35.6415 31.0881 35.5176 31.4001 35.5176H48.5883C48.9004 35.5176 49.1996 35.6415 49.4202 35.8622C49.6409 36.0828 49.7648 36.382 49.7648 36.694V50.7293C49.7648 51.0414 49.6409 51.3406 49.4202 51.5612C49.1996 51.7819 48.9004 51.9058 48.5883 51.9058ZM32.5766 49.5529H47.4119V37.8705H32.5766V49.5529Z" fill="#77ABD2"/>
</svg>
