<svg id="Group_13280" data-name="Group 13280" xmlns="http://www.w3.org/2000/svg" width="62" height="62" viewBox="0 0 62 62">
  <path id="Path_27" data-name="Path 27" d="M31,0A31,31,0,1,1,0,31,31,31,0,0,1,31,0Z" fill="#3c7ac0" fill-rule="evenodd"/>
  <g id="Group_13277" data-name="Group 13277" transform="translate(11.267 15.295)">
    <path id="Path_28" data-name="Path 28" d="M599.72,790.234c3.46-.955,6.2.182,9.045,1.777a.667.667,0,0,0,.991-.583v-5.92a.67.67,0,0,0-.366-.6,17.38,17.38,0,0,0-6.621-1.985.662.662,0,0,1-.61-.664v-6.722a.668.668,0,0,0-.668-.668h-6.752a.668.668,0,0,0-.668.668v8.956a.668.668,0,0,1-.369.6c-3.6,1.8-9.817,4.981-12.876,5.826-3.46.955-6.2-.182-9.045-1.777a.667.667,0,0,0-.991.584v5.92a.67.67,0,0,0,.366.6,17.378,17.378,0,0,0,6.621,1.986.663.663,0,0,1,.611.664v6.722a.668.668,0,0,0,.668.668h6.752a.668.668,0,0,0,.668-.668v-8.956a.667.667,0,0,1,.369-.6C590.442,794.26,596.661,791.078,599.72,790.234ZM586.474,774.87h0v10.044a.664.664,0,0,1-.371.6c-2,.977-4.812,2.674-7,2.867a.666.666,0,0,1-.718-.667V775.538a.668.668,0,0,1,.668-.668Zm7.6,30.743h0v-9.376a.663.663,0,0,1,.372-.6c2.036-.99,4.818-2.676,7-2.867a.666.666,0,0,1,.718.667v12.174a.668.668,0,0,1-.668.668h-6.752A.668.668,0,0,1,594.071,805.613Z" transform="translate(-570.79 -774.87)" fill="#fff" fill-rule="evenodd"/>
    <g id="Group_13276" data-name="Group 13276" transform="translate(32.96 18.824)">
      <path id="Path_29" data-name="Path 29" d="M2266.79,1731.542a3,3,0,0,1,3,3h2.992a5.99,5.99,0,0,0-5.99-5.99Z" transform="translate(-2266.273 -1728.55)" fill="#73d9ff" fill-rule="evenodd"/>
      <path id="Path_30" data-name="Path 30" d="M2246.6,2065.719a3,3,0,0,1-3-3h-2.991a5.99,5.99,0,0,0,5.989,5.99Z" transform="translate(-2240.61 -2056.124)" fill="#73d9ff" fill-rule="evenodd"/>
    </g>
  </g>
</svg>
