<svg id="Layer_x0020_1" xmlns="http://www.w3.org/2000/svg" width="206.475" height="39" viewBox="0 0 206.475 39">
  <g id="_1723626164096">
    <g id="Group_13275" data-name="Group 13275" transform="translate(50.806 8.843)">
      <path id="Path_25" data-name="Path 25" d="M4091.9,751.77h4.208v-7.1h7.1v7.1h4.208V733.36h-4.208v6.969h-7.1V733.36H4091.9Zm18.368,5.26h2.761c3.024,0,3.972-.947,4.734-3.156l5.523-15.517h-4.208l-2.63,8.416h-.526l-3.156-8.416h-4.208l5.391,14.07-.131.395c-.079.289-.263.526-.921.526h-2.629Zm23.5-5.26h3.419V733.36h-3.945v6.049h-.131a4.062,4.062,0,0,0-.815-.658,5.2,5.2,0,0,0-2.6-.657c-3.551,0-6.443,2.893-6.443,6.969s2.892,6.97,6.443,6.97a4.914,4.914,0,0,0,2.813-.789,4.172,4.172,0,0,0,.868-.789h.131Zm-3.551-3.419a3.3,3.3,0,1,1,3.025-3.287A3.032,3.032,0,0,1,4130.214,748.351Zm9.689,3.419h3.945v-7.364a2.092,2.092,0,0,1,2.367-2.367h2.368v-3.682h-2.5a2.923,2.923,0,0,0-1.815.526,3.551,3.551,0,0,0-.552.526h-.131l-.263-1.052h-3.42Zm15.87.263a6.97,6.97,0,1,0-6.97-6.97A6.7,6.7,0,0,0,4155.773,752.033Zm0-3.682a3.3,3.3,0,1,1,3.024-3.287A3.032,3.032,0,0,1,4155.773,748.351Zm8.505,3.945a5.578,5.578,0,0,0,.973,2.446c.842,1.21,2.5,2.42,5.6,2.42,4.34,0,6.576-2.236,6.576-5.917V738.357h-3.42l-.263,1.315h-.131a4.657,4.657,0,0,0-.815-.789,4.432,4.432,0,0,0-2.6-.789,6.449,6.449,0,0,0,0,12.887,4.3,4.3,0,0,0,2.367-.657,3.3,3.3,0,0,0,.789-.658h.131v1.578a2.324,2.324,0,0,1-2.63,2.5,2.711,2.711,0,0,1-2.051-.71,1.642,1.642,0,0,1-.447-.736Zm6.443-5a2.762,2.762,0,1,1,2.762-2.761A2.7,2.7,0,0,1,4170.722,747.3Zm18.105.394a2.658,2.658,0,0,1-.6.6,3.3,3.3,0,0,1-1.894.579,2.925,2.925,0,0,1-3.024-2.761h9.731l.053-.316a6.685,6.685,0,0,0-6.76-7.706,6.97,6.97,0,1,0,5.1,11.782,6.876,6.876,0,0,0,1.341-2.183Zm-5.523-3.945a3.054,3.054,0,0,1,6.049,0Zm11.793,8.021h3.945v-7.364a2.5,2.5,0,0,1,5,0v7.364h3.945v-8.153a5.214,5.214,0,0,0-5.392-5.523,5.052,5.052,0,0,0-2.787.736,4.094,4.094,0,0,0-.894.71h-.132l-.263-1.183H4195.1Z" transform="translate(-4091.9 -733.097)" fill="#04121f"/>
      <path id="Path_26" data-name="Path 26" d="M13579.242,730.853h4.21v-18.41h-4.21V713.5a.82.82,0,0,1-.921.921h-2.76v3.945h3.681Zm8.9,0h4.732l5.261-8.153a6.87,6.87,0,0,0,1.183-4.076,6.849,6.849,0,0,0-13.675,0,6.263,6.263,0,0,0,6.443,6.312Zm1.709-12.229a2.633,2.633,0,1,1,2.629,2.5A2.438,2.438,0,0,1,13589.853,718.624Zm11.135,1.972a6.861,6.861,0,0,0-1.185,4.077,6.85,6.85,0,0,0,13.677,0,6.262,6.262,0,0,0-6.443-6.312l3.946-5.918h-4.734Zm3.025,4.077a2.633,2.633,0,1,1,2.63,2.5A2.439,2.439,0,0,1,13604.013,724.673Z" transform="translate(-13457.811 -712.18)" fill="#3c7ac0"/>
    </g>
    <g id="Group_13278" data-name="Group 13278">
      <path id="Path_27" data-name="Path 27" d="M19.5,0A19.5,19.5,0,1,1,0,19.5,19.5,19.5,0,0,1,19.5,0Z" fill="#3c7ac0" fill-rule="evenodd"/>
      <g id="Group_13277" data-name="Group 13277" transform="translate(7.087 9.621)">
        <path id="Path_28" data-name="Path 28" d="M588.988,784.534c2.177-.6,3.9.115,5.689,1.118a.42.42,0,0,0,.624-.367v-3.724a.421.421,0,0,0-.23-.376,10.933,10.933,0,0,0-4.165-1.249.417.417,0,0,1-.384-.418V775.29a.42.42,0,0,0-.42-.42h-4.247a.42.42,0,0,0-.42.42v5.634a.42.42,0,0,1-.232.376,64.641,64.641,0,0,1-8.1,3.665c-2.177.6-3.9-.115-5.69-1.118a.419.419,0,0,0-.623.367v3.724a.421.421,0,0,0,.23.376,10.932,10.932,0,0,0,4.165,1.249.417.417,0,0,1,.384.418v4.229a.42.42,0,0,0,.42.42h4.247a.42.42,0,0,0,.42-.42v-5.634a.42.42,0,0,1,.232-.376A64.637,64.637,0,0,1,588.988,784.534Zm-8.332-9.664h0v6.318a.417.417,0,0,1-.234.376c-1.261.614-3.027,1.682-4.4,1.8a.419.419,0,0,1-.452-.42V775.29a.42.42,0,0,1,.42-.42Zm4.779,19.338h0v-5.9a.417.417,0,0,1,.234-.376c1.281-.623,3.031-1.683,4.4-1.8a.419.419,0,0,1,.451.42v7.658a.42.42,0,0,1-.42.42h-4.247A.42.42,0,0,1,585.435,794.208Z" transform="translate(-570.79 -774.87)" fill="#fff" fill-rule="evenodd"/>
        <g id="Group_13276" data-name="Group 13276" transform="translate(20.733 11.841)">
          <path id="Path_29" data-name="Path 29" d="M2266.79,1730.432a1.886,1.886,0,0,1,1.886,1.886h1.882a3.768,3.768,0,0,0-3.768-3.768Z" transform="translate(-2266.465 -1728.55)" fill="#73d9ff" fill-rule="evenodd"/>
          <path id="Path_30" data-name="Path 30" d="M2244.378,2064.606a1.886,1.886,0,0,1-1.886-1.886h-1.881a3.768,3.768,0,0,0,3.767,3.768Z" transform="translate(-2240.61 -2058.571)" fill="#73d9ff" fill-rule="evenodd"/>
        </g>
      </g>
    </g>
  </g>
</svg>
