<svg xmlns="http://www.w3.org/2000/svg" width="328.241" height="62" viewBox="0 0 328.241 62">
  <g id="Group_13281" data-name="Group 13281" transform="translate(-140 -5433)">
    <g id="Group_13279" data-name="Group 13279" transform="translate(220.768 5447.058)">
      <path id="Path_25" data-name="Path 25" d="M4091.9,762.627h6.69V751.339h11.288v11.289h6.689V733.36h-6.689V744.44H4098.59V733.36h-6.69Zm29.2,8.362h4.39c4.808,0,6.314-1.505,7.526-5.017l8.78-24.668h-6.689l-4.182,13.379h-.836l-5.017-13.379h-6.689l8.57,22.368-.208.627c-.126.46-.418.836-1.464.836h-4.18Zm37.353-8.362h5.435V733.36h-6.271v9.616h-.209a6.458,6.458,0,0,0-1.3-1.045,8.26,8.26,0,0,0-4.14-1.045c-5.646,0-10.243,4.6-10.243,11.08s4.6,11.08,10.243,11.08a7.812,7.812,0,0,0,4.473-1.254,6.624,6.624,0,0,0,1.38-1.255h.209Zm-5.645-5.435c-2.717,0-4.807-2.049-4.807-5.226s2.09-5.226,4.807-5.226,4.809,2.049,4.809,5.226S4155.528,757.192,4152.809,757.192Zm15.4,5.435h6.272V750.92q0-3.763,3.762-3.763h3.764V741.3h-3.972a4.647,4.647,0,0,0-2.885.836,5.648,5.648,0,0,0-.878.836h-.209l-.417-1.672h-5.437Zm25.229.418a11.08,11.08,0,1,0-11.08-11.08A10.648,10.648,0,0,0,4193.441,763.046Zm0-5.854c-2.717,0-4.809-2.049-4.809-5.226s2.091-5.226,4.809-5.226,4.808,2.049,4.808,5.226S4196.159,757.192,4193.441,757.192Zm13.521,6.271a8.866,8.866,0,0,0,1.546,3.889c1.338,1.923,3.972,3.846,8.906,3.846,6.9,0,10.454-3.554,10.454-9.407V741.3h-5.437l-.418,2.091h-.208a7.4,7.4,0,0,0-1.3-1.255,7.044,7.044,0,0,0-4.14-1.254c-5.687,0-9.826,4.181-9.826,10.244s4.139,10.243,9.826,10.243a6.837,6.837,0,0,0,3.763-1.045,5.231,5.231,0,0,0,1.254-1.045h.209v2.509c0,2.508-1.463,3.972-4.182,3.972a4.308,4.308,0,0,1-3.261-1.129,2.609,2.609,0,0,1-.71-1.171Zm10.243-7.944a4.39,4.39,0,1,1,4.391-4.39A4.286,4.286,0,0,1,4217.206,755.52Zm28.783.627a4.219,4.219,0,0,1-.962.962,5.248,5.248,0,0,1-3.011.92,4.65,4.65,0,0,1-4.808-4.39h15.47l.084-.5a10.628,10.628,0,0,0-10.746-12.25,11.08,11.08,0,1,0,8.111,18.731,10.926,10.926,0,0,0,2.132-3.47Zm-8.781-6.272c.626-2.8,2.257-4.181,4.808-4.181s4.182,1.38,4.808,4.181Zm18.748,12.752h6.271V750.92a3.972,3.972,0,1,1,7.944,0v11.707h6.272V749.666c0-5.227-3.555-8.78-8.572-8.78a8.031,8.031,0,0,0-4.431,1.171,6.5,6.5,0,0,0-1.421,1.129h-.209l-.418-1.881h-5.436Z" transform="translate(-4091.9 -732.942)" fill="#fff"/>
      <path id="Path_26" data-name="Path 26" d="M13581.413,741.865h6.693V712.6h-6.693v1.672a1.3,1.3,0,0,1-1.465,1.463h-4.387v6.272h5.852Zm14.15,0h7.523l8.363-12.961a10.916,10.916,0,0,0,1.881-6.481c0-5.644-4.6-10.244-10.871-10.244s-10.869,4.6-10.869,10.244a9.957,9.957,0,0,0,10.244,10.034Zm2.717-19.442a4.186,4.186,0,1,1,4.18,3.972A3.876,3.876,0,0,1,13598.28,722.424Zm17.7,3.135a10.914,10.914,0,0,0-1.883,6.481c0,5.644,4.6,10.243,10.873,10.243s10.869-4.6,10.869-10.243a9.955,9.955,0,0,0-10.242-10.034l6.273-9.407h-7.527Zm4.811,6.481a4.186,4.186,0,1,1,4.18,3.972A3.876,3.876,0,0,1,13620.792,732.04Z" transform="translate(-13388.367 -712.18)" fill="#73d9ff"/>
    </g>
    <g id="Group_13280" data-name="Group 13280" transform="translate(140 5433)">
      <path id="Path_27" data-name="Path 27" d="M31,0A31,31,0,1,1,0,31,31,31,0,0,1,31,0Z" fill="#3c7ac0" fill-rule="evenodd"/>
      <g id="Group_13277" data-name="Group 13277" transform="translate(11.267 15.295)">
        <path id="Path_28" data-name="Path 28" d="M599.72,790.234c3.46-.955,6.2.182,9.045,1.777a.667.667,0,0,0,.991-.583v-5.92a.67.67,0,0,0-.366-.6,17.38,17.38,0,0,0-6.621-1.985.662.662,0,0,1-.61-.664v-6.722a.668.668,0,0,0-.668-.668h-6.752a.668.668,0,0,0-.668.668v8.956a.668.668,0,0,1-.369.6c-3.6,1.8-9.817,4.981-12.876,5.826-3.46.955-6.2-.182-9.045-1.777a.667.667,0,0,0-.991.584v5.92a.67.67,0,0,0,.366.6,17.378,17.378,0,0,0,6.621,1.986.663.663,0,0,1,.611.664v6.722a.668.668,0,0,0,.668.668h6.752a.668.668,0,0,0,.668-.668v-8.956a.667.667,0,0,1,.369-.6C590.442,794.26,596.661,791.078,599.72,790.234ZM586.474,774.87h0v10.044a.664.664,0,0,1-.371.6c-2,.977-4.812,2.674-7,2.867a.666.666,0,0,1-.718-.667V775.538a.668.668,0,0,1,.668-.668Zm7.6,30.743h0v-9.376a.663.663,0,0,1,.372-.6c2.036-.99,4.818-2.676,7-2.867a.666.666,0,0,1,.718.667v12.174a.668.668,0,0,1-.668.668h-6.752A.668.668,0,0,1,594.071,805.613Z" transform="translate(-570.79 -774.87)" fill="#fff" fill-rule="evenodd"/>
        <g id="Group_13276" data-name="Group 13276" transform="translate(32.96 18.824)">
          <path id="Path_29" data-name="Path 29" d="M2266.79,1731.542a3,3,0,0,1,3,3h2.992a5.99,5.99,0,0,0-5.99-5.99Z" transform="translate(-2266.273 -1728.55)" fill="#73d9ff" fill-rule="evenodd"/>
          <path id="Path_30" data-name="Path 30" d="M2246.6,2065.719a3,3,0,0,1-3-3h-2.991a5.99,5.99,0,0,0,5.989,5.99Z" transform="translate(-2240.61 -2056.124)" fill="#73d9ff" fill-rule="evenodd"/>
        </g>
      </g>
    </g>
  </g>
</svg>
